<svg width="500" height="500" version="1.1" xmlns="http://www.w3.org/2000/svg" desc="Created with imagetracer.js version 1.2.6" ><path fill="rgb(57,158,250)" stroke="rgb(57,158,250)" stroke-width="1" opacity="0.984313725490196" d="M 232.5 54 L 262.5 54 L 296.5 60 L 299.5 62 L 312.5 65 L 322.5 69 L 344.5 80 L 358.5 90 L 362 91 Q 360.9 93.7 363.5 93 L 368 96.5 L 366.5 99 L 362 101 Q 363.1 103.7 360.5 103 L 338.5 120 L 325.5 128 L 301.5 115 L 295.5 114 L 286.5 110 L 282.5 110 L 279.5 108 L 274.5 108 L 268.5 106 L 245.5 104 L 244.5 105 L 232.5 105 L 223.5 107 L 221.5 107 L 211.5 108 L 208.5 110 L 204.5 110 L 187.5 116 L 164.5 128 L 143 145.5 Q 114 171.8 104 216 L 102 216.5 L 103 220.5 L 101.5 226 L 101 219.5 L 102 217.5 L 102 215.5 L 103 213.5 L 101 212.5 L 104 211.5 L 103 208.5 L 105 205.5 L 104 202.5 L 104.5 201 L 105.5 203 L 108 199.5 L 106 195.5 L 107 193.5 L 106.5 192 Q 108 194.5 109.5 191 Q 112.1 191.8 111 188.5 L 109.5 189 Q 105.8 190 107 187 L 111 185.5 Q 109.8 182.8 108.5 185 L 104 188.5 L 103.5 190 L 100 187.5 L 97.5 184 L 94.5 186 L 88.5 189 L 83 186.5 L 84 182.5 L 80 180 L 80 174.5 L 78.5 174 L 75.5 170 Q 73.3 169.3 74 171.5 L 71 172.5 L 69.5 176 L 67 174.5 L 68 177.5 L 65 178.5 L 66 182 L 63 181.5 Q 70.7 159.2 83.5 142 L 85 141.5 Q 82.5 140 86 138.5 L 99 120 L 101 120 L 103 116 L 106 116 L 106 113.5 L 110 111 L 110 109 L 112 109 Q 110.9 106.3 113.5 107 Q 134.8 85.3 164.5 72 L 197.5 60 L 212.5 58 L 216.5 56 L 231.5 55 L 232.5 54 Z M 87 147 L 85 150 L 87 149 L 87 147 Z M 79 158 L 79 159 L 82 159 L 79 158 Z M 75 160 L 73 163 L 76 162 Q 77 159 75 160 Z M 77 163 L 76 165 L 78 164 L 77 163 Z M 80 164 L 77 168 L 80 167 L 80 164 Z M 71 167 L 72 169 L 74 168 L 71 167 Z M 69 171 L 70 175 L 71 172 L 69 171 Z M 113 182 L 112 185 L 113 185 L 113 182 Z " /><path fill="rgb(57,158,250)" stroke="rgb(57,158,250)" stroke-width="1" opacity="0.984313725490196" d="M 440.5 133 Q 444.9 131.5 444 134.5 L 440 145.5 L 437 160.5 L 435 163.5 L 433 175.5 L 431 177.5 Q 427.2 199.2 420 217.5 L 420 221.5 L 418.5 223 L 401.5 197 L 389.5 207 L 388 206.5 L 380.5 215 L 356.5 235 L 356.5 234 L 363 228.5 Q 362.3 226.3 364.5 227 L 377 217 L 378 214.5 L 376 210.5 L 377.5 208 L 377 209.5 L 378.5 212 L 379.5 209 L 382.5 210 L 382.5 208 L 387 206.5 L 384 204.5 L 384.5 203 L 373.5 204 L 372.5 205 L 369 202.5 L 367.5 199 L 363.5 204 Q 360.2 205.1 361 202.5 L 363.5 199 L 366 197.5 Q 367.1 194.2 364.5 195 Q 363.3 198.7 359 198 Q 360.1 195.3 357.5 196 L 355 196.5 Q 354.3 198.8 356.5 198 L 359 199.5 L 357.5 200 L 356 199.5 L 355.5 201 L 355 199 L 351 201.5 Q 353.3 202.8 350.5 204 L 347 203 L 344.5 207 L 342 208.5 L 340.5 211 L 339 211.5 L 341 212.5 L 335 214 Q 336.5 217.7 333.5 217 L 328 221.5 L 328.5 223 L 326.5 223 L 321.5 228 L 321 226 L 322.5 226 L 347.5 202 L 349 202 Q 347.9 199.3 350.5 200 L 380 171.5 L 352 157.5 L 354 157.5 Q 353.2 154.9 356.5 156 L 440.5 133 Z M 361 157 L 359 159 L 361 159 L 361 157 Z M 362 191 L 360 193 Q 359 195 362 194 L 362 191 Z M 399 196 L 397 198 L 399 198 L 399 196 Z M 388 198 L 388 200 L 388 201 L 391 200 L 388 198 Z M 386 200 L 386 203 Q 389 202 386 200 Z M 388 202 L 386 204 L 388 204 L 388 202 Z M 391 202 L 389 205 L 391 204 L 391 202 Z M 411 206 L 412 208 Q 413 205 411 206 Z M 420 208 L 420 211 L 417 210 L 416 212 L 420 213 L 421 212 L 420 208 Z M 415 211 Q 413 216 417 217 L 417 216 L 417 214 L 415 213 L 415 211 Z " /><path fill="rgb(57,158,250)" stroke="rgb(57,158,250)" stroke-width="1" opacity="0.984313725490196" d="M 191.5 163 L 264.5 163 Q 277.1 165.4 283 174.5 L 287 184.5 L 287 245.5 L 277 254.5 L 275.5 257 L 269.5 262 L 269 203.5 L 266 193.5 L 258.5 185 L 251.5 181 L 246.5 180 L 181.5 180 L 180 178.5 Q 179.8 169.3 185.5 166 L 191.5 163 Z " /><path fill="rgb(57,158,250)" stroke="rgb(57,158,250)" stroke-width="1" opacity="0.984313725490196" d="M 62 183 L 64 183.5 L 63.5 188 L 62 187.5 L 60 196 L 62 196.5 L 60.5 197 L 59 196.5 L 58 199.5 L 58 201.5 L 56.5 204 L 56 202.5 L 62 183 Z " /><path fill="rgb(57,158,250)" stroke="rgb(57,158,250)" stroke-width="1" opacity="0.984313725490196" d="M 165.5 189 L 225.5 189 L 226.5 190 L 234.5 190 L 236.5 189 L 241.5 190 L 243.5 190 Q 253.4 190.6 257 197.5 L 259 202.5 L 259 271.5 L 254 278 L 241 288 L 241 226.5 Q 238.9 217.1 232.5 212 L 223.5 207 Q 218.7 208.3 217.5 206 L 153 206 Q 152.9 195.1 160.5 191 L 165.5 189 Z " /><path fill="rgb(57,158,250)" stroke="rgb(57,158,250)" stroke-width="1" opacity="0.984313725490196" d="M 63.5 190 L 63 191.5 L 62.5 193 L 62 191.5 L 63.5 190 Z " /><path fill="rgb(57,158,250)" stroke="rgb(57,158,250)" stroke-width="1" opacity="0.984313725490196" d="M 102 191 L 105 192.5 L 104 195 L 101.5 196 L 101 194.5 L 102 191 Z " /><path fill="rgb(57,158,250)" stroke="rgb(57,158,250)" stroke-width="1" opacity="0.984313725490196" d="M 56.5 205 L 57 206.5 L 55.5 209 L 55 207.5 L 56.5 205 Z " /><path fill="rgb(57,158,250)" stroke="rgb(57,158,250)" stroke-width="1" opacity="0.984313725490196" d="M 100 206 Q 102.7 204.9 102 207.5 L 101.5 210 L 100 210 L 100 206 Z " /><path fill="rgb(57,158,250)" stroke="rgb(57,158,250)" stroke-width="1" opacity="0.984313725490196" d="M 54 211 L 56 211.5 L 54.5 215 L 54 211 Z " /><path fill="rgb(57,158,250)" stroke="rgb(57,158,250)" stroke-width="1" opacity="0.984313725490196" d="M 142.5 215 L 172.5 215 L 173.5 216 L 175.5 216 L 218.5 216 Q 225.9 217.1 229 222.5 L 232 228.5 L 232 297.5 L 214 312 L 214 251.5 Q 212.8 243.2 207.5 239 L 199.5 235 L 129 235 L 129 228.5 L 134 219 L 142.5 215 Z " /><path fill="rgb(57,158,250)" stroke="rgb(57,158,250)" stroke-width="1" opacity="0.984313725490196" d="M 369.5 216 L 368.5 218 L 369.5 216 Z " /><path fill="rgb(57,158,250)" stroke="rgb(57,158,250)" stroke-width="1" opacity="0.984313725490196" d="M 53.5 218 L 54 222.5 L 53 223.5 L 52.5 232 L 52 223.5 L 53.5 218 Z " /><path fill="rgb(57,158,250)" stroke="rgb(57,158,250)" stroke-width="1" opacity="0.984313725490196" d="M 100.5 227 L 101 232.5 L 100 232.5 L 100.5 227 Z " /><path fill="rgb(57,158,250)" stroke="rgb(57,158,250)" stroke-width="1" opacity="0.984313725490196" d="M 315.5 232 L 304.5 244 L 294.5 253 L 303.5 243 L 315.5 232 Z " /><path fill="rgb(57,158,250)" stroke="rgb(57,158,250)" stroke-width="1" opacity="0.984313725490196" d="M 51.5 235 L 52 239.5 L 51 239.5 L 51.5 235 Z " /><path fill="rgb(57,158,250)" stroke="rgb(57,158,250)" stroke-width="1" opacity="0.984313725490196" d="M 99.5 236 L 100 240.5 L 99 240.5 L 99.5 236 Z " /><path fill="rgb(57,158,250)" stroke="rgb(57,158,250)" stroke-width="1" opacity="0.984313725490196" d="M 354.5 236 L 348.5 243 L 347 242.5 L 350 240.5 L 351.5 238 L 354.5 236 Z " /><path fill="rgb(57,158,250)" stroke="rgb(57,158,250)" stroke-width="1" opacity="0.984313725490196" d="M 345.5 244 L 340.5 250 L 345.5 244 Z " /><path fill="rgb(57,158,250)" stroke="rgb(57,158,250)" stroke-width="1" opacity="0.984313725490196" d="M 99.5 248 L 100 250.5 L 99 250.5 L 99.5 248 Z " /><path fill="rgb(57,158,250)" stroke="rgb(57,158,250)" stroke-width="1" opacity="0.984313725490196" d="M 338.5 250 L 335.5 254 L 338.5 250 Z " /><path fill="rgb(57,158,250)" stroke="rgb(57,158,250)" stroke-width="1" opacity="0.984313725490196" d="M 333.5 254 L 331.5 257 L 333.5 254 Z " /><path fill="rgb(57,158,250)" stroke="rgb(57,158,250)" stroke-width="1" opacity="0.984313725490196" d="M 51.5 256 L 52 261.5 L 51 261.5 L 51.5 256 Z " /><path fill="rgb(57,158,250)" stroke="rgb(57,158,250)" stroke-width="1" opacity="0.984313725490196" d="M 328.5 259 L 327.5 261 L 328.5 259 Z " /><path fill="rgb(57,158,250)" stroke="rgb(57,158,250)" stroke-width="1" opacity="0.984313725490196" d="M 99.5 260 L 100 263.5 L 99 263.5 L 99.5 260 Z " /><path fill="rgb(57,158,250)" stroke="rgb(57,158,250)" stroke-width="1" opacity="0.984313725490196" d="M 285.5 260 L 279.5 267 L 285.5 260 Z " /><path fill="rgb(57,158,250)" stroke="rgb(57,158,250)" stroke-width="1" opacity="0.984313725490196" d="M 342.5 260 L 441.5 260 L 442 260.5 L 442 274.5 L 435 306.5 L 420 343.5 L 396 378.5 L 372.5 402 L 345.5 421 L 347.5 418 L 355.5 414 L 369 403.5 Q 368.3 401.3 370.5 402 L 373 401 Q 371.9 398.3 374.5 399 L 387.5 385 L 391 382.5 L 390 380.5 L 395 377.5 L 393.5 377 L 392 377.5 L 396 374.5 L 395 371.5 L 397.5 370 L 396.5 373 L 401 370.5 L 403 365.5 Q 400.8 364.3 403.5 363 L 405.5 364 Q 403.6 361.3 409 358.5 L 410 356.5 L 408 355.5 L 412 353.5 Q 409 352.5 410 347.5 L 412 344.5 L 408.5 347 L 402 348 L 401.5 350 L 399.5 348 Q 391.2 348.9 387 347 L 386 336 L 384 336 L 384 341 L 382.5 341 Q 379.8 339.8 382 338.5 Q 380.8 332.5 384 333.5 L 384 328.5 Q 386.3 327.2 385 322.5 L 384 322.5 L 382.5 325 L 381 325.5 L 382 327.5 L 381 333 Q 377.6 333.8 376.5 331 L 372.5 340 L 371.5 339 L 367 343.5 L 368 347.5 L 366.5 347 L 365 347.5 L 367 350.5 L 363 349.5 L 364 347.5 L 362 348.5 Q 362.8 350.8 360.5 350 L 360.5 352 L 357 354.5 L 357.5 356 Q 354.9 355.3 356 358 L 353.5 358 L 351 361.5 L 351.5 363 L 349.5 362 L 346 364 L 347 366.5 L 344.5 367 L 342 368.5 L 338.5 373 L 336.5 373 Q 333.9 372.3 335 375 L 332.5 375 Q 325.9 382.2 316 385 L 315.5 387 L 314.5 385 Q 338.3 373.8 355 355.5 Q 367.6 342.1 376.5 325 L 378 324.5 L 378 322.5 L 384 306 L 289.5 306 L 289 304.5 L 298.5 296 L 298 297.5 Q 298.8 299.8 296.5 299 L 296.5 301 L 290 304.5 L 294.5 305 L 296.5 305 L 324.5 305 L 328.5 304 L 329.5 305 L 339.5 305 Q 340.7 302.7 345.5 304 Q 346.8 306.3 351.5 305 L 353.5 304 L 356.5 305 L 357.5 304 L 369.5 304 L 371.5 305 Q 373 302.5 378.5 304 L 380 304.5 L 379 299 L 371 298 Q 372.1 295.3 369.5 296 L 367 295.5 L 365.5 293 L 358.5 292 L 355 293 L 353 288 L 344.5 288 L 344 285 L 342.5 285 L 340 284 L 339 280 Q 335.3 278.5 336 281.5 L 337 283.5 L 333.5 286 L 333 282.5 L 335 278.5 L 334 275 L 330 276.5 Q 331.1 279.8 328.5 279 L 327 278.5 L 326.5 280 L 326 278.5 L 326.5 277 L 324.5 276 L 324 277.5 L 324.5 279 L 322.5 278 L 322.5 280 L 321 279.5 L 319.5 283 L 316.5 282 L 314 284.5 L 314.5 286 L 316 285.5 L 314.5 287 L 312 286.5 L 316.5 281 L 342.5 260 Z M 343 262 Q 342 265 345 264 Q 346 261 343 262 Z M 344 267 L 341 270 L 338 268 L 336 272 L 336 271 Q 335 268 333 271 L 334 275 L 346 269 L 344 267 Z M 387 305 L 386 308 L 387 308 L 387 305 Z M 386 309 L 385 312 L 387 312 L 386 309 Z M 382 318 L 380 321 L 383 324 L 384 321 L 383 321 L 382 318 Z M 419 330 L 419 333 L 421 332 Q 422 329 419 330 Z M 375 332 L 373 335 L 375 334 L 375 332 Z M 418 338 L 418 341 L 419 341 Q 420 337 418 338 Z M 414 342 L 414 344 Q 412 345 415 346 L 415 345 L 417 345 L 417 344 L 414 342 Z M 400 344 L 401 346 L 403 345 L 400 344 Z M 412 348 L 411 351 L 412 351 L 412 348 Z " /><path fill="rgb(57,158,250)" stroke="rgb(57,158,250)" stroke-width="1" opacity="0.984313725490196" d="M 325.5 261 L 323.5 264 L 325.5 261 Z " /><path fill="rgb(57,158,250)" stroke="rgb(57,158,250)" stroke-width="1" opacity="0.984313725490196" d="M 321.5 264 L 315.5 271 L 316 269.5 Q 315.3 267.3 317.5 268 L 321.5 264 Z " /><path fill="rgb(57,158,250)" stroke="rgb(57,158,250)" stroke-width="1" opacity="0.984313725490196" d="M 52.5 265 L 53 274.5 L 52 274.5 L 52.5 265 Z " /><path fill="rgb(57,158,250)" stroke="rgb(57,158,250)" stroke-width="1" opacity="0.984313725490196" d="M 100.5 267 L 101 274.5 L 100 274.5 L 100.5 267 Z " /><path fill="rgb(57,158,250)" stroke="rgb(57,158,250)" stroke-width="1" opacity="0.984313725490196" d="M 143.5 267 L 195.5 267 L 197 268.5 Q 198.3 273.8 195.5 275 L 143.5 275 L 141 272.5 Q 140.3 267.8 143.5 267 Z M 144 268 L 142 270 Q 141 273 144 274 L 196 274 Q 196 274 196 270 L 195 268 L 144 268 Z " /><path fill="rgb(57,158,250)" stroke="rgb(57,158,250)" stroke-width="1" opacity="0.984313725490196" d="M 273.5 271 L 265.5 280 L 273.5 271 Z " /><path fill="rgb(57,158,250)" stroke="rgb(57,158,250)" stroke-width="1" opacity="0.984313725490196" d="M 313.5 271 L 311.5 274 L 313.5 271 Z " /><path fill="rgb(57,158,250)" stroke="rgb(57,158,250)" stroke-width="1" opacity="0.984313725490196" d="M 307.5 276 L 302.5 282 L 297.5 286 L 301.5 281 L 307.5 276 Z " /><path fill="rgb(57,158,250)" stroke="rgb(57,158,250)" stroke-width="1" opacity="0.984313725490196" d="M 53.5 277 L 54 279.5 L 53 279.5 L 53.5 277 Z " /><path fill="rgb(57,158,250)" stroke="rgb(57,158,250)" stroke-width="1" opacity="0.984313725490196" d="M 101.5 280 Q 104.5 279.1 103 283.5 L 102 283.5 L 101.5 280 Z " /><path fill="rgb(57,158,250)" stroke="rgb(57,158,250)" stroke-width="1" opacity="0.984313725490196" d="M 53.5 281 Q 56 282 55 286.5 L 54 286.5 L 53.5 281 Z " /><path fill="rgb(57,158,250)" stroke="rgb(57,158,250)" stroke-width="1" opacity="0.984313725490196" d="M 295.5 286 L 290.5 292 L 290 290 L 295.5 286 Z " /><path fill="rgb(57,158,250)" stroke="rgb(57,158,250)" stroke-width="1" opacity="0.984313725490196" d="M 310.5 286 L 311 287.5 L 307.5 292 Q 306 289.5 304.5 293 L 303 293 L 303 295 Q 300.3 293.9 301 296.5 L 300 296.5 L 303.5 292 L 310.5 286 Z " /><path fill="rgb(57,158,250)" stroke="rgb(57,158,250)" stroke-width="1" opacity="0.984313725490196" d="M 144.5 287 L 176.5 287 L 179 288 L 180 291.5 L 179 291.5 L 176.5 288 L 144.5 288 L 144.5 287 Z " /><path fill="rgb(57,158,250)" stroke="rgb(57,158,250)" stroke-width="1" opacity="0.984313725490196" d="M 104.5 288 L 105 291.5 L 104 291.5 L 104.5 288 Z " /><path fill="rgb(57,158,250)" stroke="rgb(57,158,250)" stroke-width="1" opacity="0.984313725490196" d="M 142.5 288 L 142 289.5 L 141.5 293 L 141 289.5 L 142.5 288 Z " /><path fill="rgb(57,158,250)" stroke="rgb(57,158,250)" stroke-width="1" opacity="0.984313725490196" d="M 254.5 289 L 251.5 293 L 254.5 289 Z " /><path fill="rgb(57,158,250)" stroke="rgb(57,158,250)" stroke-width="1" opacity="0.984313725490196" d="M 288.5 292 L 285.5 296 L 288.5 292 Z " /><path fill="rgb(57,158,250)" stroke="rgb(57,158,250)" stroke-width="1" opacity="0.984313725490196" d="M 178.5 293 L 177.5 295 L 178.5 293 Z " /><path fill="rgb(57,158,250)" stroke="rgb(57,158,250)" stroke-width="1" opacity="0.984313725490196" d="M 142.5 294 L 144.5 295 L 176 295.5 L 144.5 296 L 142.5 294 Z " /><path fill="rgb(57,158,250)" stroke="rgb(57,158,250)" stroke-width="1" opacity="0.984313725490196" d="M 57.5 297 L 58 299.5 L 57 299.5 L 57.5 297 Z " /><path fill="rgb(57,158,250)" stroke="rgb(57,158,250)" stroke-width="1" opacity="0.984313725490196" d="M 244.5 298 L 239.5 304 L 244.5 298 Z " /><path fill="rgb(57,158,250)" stroke="rgb(57,158,250)" stroke-width="1" opacity="0.984313725490196" d="M 107.5 299 L 109 303.5 L 108 303.5 L 107.5 299 Z " /><path fill="rgb(57,158,250)" stroke="rgb(57,158,250)" stroke-width="1" opacity="0.984313725490196" d="M 280.5 299 L 277.5 303 L 276 302.5 L 280.5 299 Z " /><path fill="rgb(57,158,250)" stroke="rgb(57,158,250)" stroke-width="1" opacity="0.984313725490196" d="M 59.5 304 L 60 306.5 L 59 306.5 L 59.5 304 Z " /><path fill="rgb(57,158,250)" stroke="rgb(57,158,250)" stroke-width="1" opacity="0.984313725490196" d="M 274.5 304 L 272.5 307 L 274.5 304 Z " /><path fill="rgb(57,158,250)" stroke="rgb(57,158,250)" stroke-width="1" opacity="0.984313725490196" d="M 110.5 307 L 112 310.5 L 111 310.5 L 110.5 307 Z " /><path fill="rgb(57,158,250)" stroke="rgb(57,158,250)" stroke-width="1" opacity="0.984313725490196" d="M 232.5 309 L 229.5 313 L 232.5 309 Z " /><path fill="rgb(57,158,250)" stroke="rgb(57,158,250)" stroke-width="1" opacity="0.984313725490196" d="M 268.5 309 L 265.5 313 L 268.5 309 Z " /><path fill="rgb(57,158,250)" stroke="rgb(57,158,250)" stroke-width="1" opacity="0.984313725490196" d="M 227.5 313 L 224.5 317 L 227.5 313 Z " /><path fill="rgb(57,158,250)" stroke="rgb(57,158,250)" stroke-width="1" opacity="0.984313725490196" d="M 113.5 314 L 115 316.5 L 113 315.5 L 113.5 314 Z " /><path fill="rgb(57,158,250)" stroke="rgb(57,158,250)" stroke-width="1" opacity="0.984313725490196" d="M 261.5 315 L 258.5 319 L 261.5 315 Z " /><path fill="rgb(57,158,250)" stroke="rgb(57,158,250)" stroke-width="1" opacity="0.984313725490196" d="M 256.5 319 L 255.5 321 L 256.5 319 Z " /><path fill="rgb(57,158,250)" stroke="rgb(57,158,250)" stroke-width="1" opacity="0.984313725490196" d="M 64.5 320 L 66 322.5 L 65 322.5 L 64.5 320 Z " /><path fill="rgb(57,158,250)" stroke="rgb(57,158,250)" stroke-width="1" opacity="0.984313725490196" d="M 116.5 320 L 118 322.5 L 116 321.5 L 116.5 320 Z " /><path fill="rgb(57,158,250)" stroke="rgb(57,158,250)" stroke-width="1" opacity="0.984313725490196" d="M 219.5 320 L 217.5 323 L 219.5 320 Z " /><path fill="rgb(57,158,250)" stroke="rgb(57,158,250)" stroke-width="1" opacity="0.984313725490196" d="M 253.5 321 L 251.5 324 L 253.5 321 Z " /><path fill="rgb(57,158,250)" stroke="rgb(57,158,250)" stroke-width="1" opacity="0.984313725490196" d="M 215.5 323 L 212.5 327 L 215.5 323 Z " /><path fill="rgb(57,158,250)" stroke="rgb(57,158,250)" stroke-width="1" opacity="0.984313725490196" d="M 248.5 325 L 247.5 327 L 248.5 325 Z " /><path fill="rgb(57,158,250)" stroke="rgb(57,158,250)" stroke-width="1" opacity="0.984313725490196" d="M 119.5 326 L 120.5 328 L 119.5 326 Z " /><path fill="rgb(57,158,250)" stroke="rgb(57,158,250)" stroke-width="1" opacity="0.984313725490196" d="M 209.5 328 L 207.5 331 L 209.5 328 Z " /><path fill="rgb(57,158,250)" stroke="rgb(57,158,250)" stroke-width="1" opacity="0.984313725490196" d="M 244.5 328 L 243.5 330 L 244.5 328 Z " /><path fill="rgb(57,158,250)" stroke="rgb(57,158,250)" stroke-width="1" opacity="0.984313725490196" d="M 121.5 329 L 124 332.5 L 121 330.5 L 121.5 329 Z " /><path fill="rgb(57,158,250)" stroke="rgb(57,158,250)" stroke-width="1" opacity="0.984313725490196" d="M 205.5 331 L 203.5 334 L 201.5 335 L 202.5 333 L 205.5 331 Z " /><path fill="rgb(57,158,250)" stroke="rgb(57,158,250)" stroke-width="1" opacity="0.984313725490196" d="M 70.5 333 L 72 335.5 L 70 334.5 L 70.5 333 Z " /><path fill="rgb(57,158,250)" stroke="rgb(57,158,250)" stroke-width="1" opacity="0.984313725490196" d="M 124.5 334 L 131 343.5 L 129 342.5 L 124.5 334 Z " /><path fill="rgb(57,158,250)" stroke="rgb(57,158,250)" stroke-width="1" opacity="0.984313725490196" d="M 196.5 337 L 195.5 339 L 196.5 337 Z " /><path fill="rgb(57,158,250)" stroke="rgb(57,158,250)" stroke-width="1" opacity="0.984313725490196" d="M 73.5 340 L 74.5 342 L 73.5 340 Z " /><path fill="rgb(57,158,250)" stroke="rgb(57,158,250)" stroke-width="1" opacity="0.984313725490196" d="M 374.5 340 L 376 345.5 L 375 345.5 L 374.5 340 Z " /><path fill="rgb(57,158,250)" stroke="rgb(57,158,250)" stroke-width="1" opacity="0.984313725490196" d="M 220.5 341 L 222 341.5 L 219.5 343 L 220.5 341 Z " /><path fill="rgb(57,158,250)" stroke="rgb(57,158,250)" stroke-width="1" opacity="0.984313725490196" d="M 132.5 345 L 135.5 349 L 132.5 345 Z " /><path fill="rgb(57,158,250)" stroke="rgb(57,158,250)" stroke-width="1" opacity="0.984313725490196" d="M 170.5 349 L 172 349.5 Q 170 352.5 164.5 352 L 164.5 351 L 170.5 349 Z " /><path fill="rgb(57,158,250)" stroke="rgb(57,158,250)" stroke-width="1" opacity="0.984313725490196" d="M 198.5 349 L 201 349.5 L 198.5 350 L 198.5 349 Z " /><path fill="rgb(57,158,250)" stroke="rgb(57,158,250)" stroke-width="1" opacity="0.984313725490196" d="M 136.5 350 L 138.5 353 L 136.5 350 Z " /><path fill="rgb(57,158,250)" stroke="rgb(57,158,250)" stroke-width="1" opacity="0.984313725490196" d="M 192.5 350 L 196 350.5 L 192.5 351 L 192.5 350 Z " /><path fill="rgb(57,158,250)" stroke="rgb(57,158,250)" stroke-width="1" opacity="0.984313725490196" d="M 399.5 351 L 402 352.5 L 400 353.5 L 399.5 351 Z " /><path fill="rgb(57,158,250)" stroke="rgb(57,158,250)" stroke-width="1" opacity="0.984313725490196" d="M 170.5 352 L 182 352.5 L 170.5 353 L 170.5 352 Z " /><path fill="rgb(57,158,250)" stroke="rgb(57,158,250)" stroke-width="1" opacity="0.984313725490196" d="M 140.5 354 L 147.5 362 L 140.5 354 Z " /><path fill="rgb(57,158,250)" stroke="rgb(57,158,250)" stroke-width="1" opacity="0.984313725490196" d="M 82.5 355 L 83.5 357 L 82.5 355 Z " /><path fill="rgb(57,158,250)" stroke="rgb(57,158,250)" stroke-width="1" opacity="0.984313725490196" d="M 84.5 358 L 85.5 360 L 84.5 358 Z " /><path fill="rgb(57,158,250)" stroke="rgb(57,158,250)" stroke-width="1" opacity="0.984313725490196" d="M 401.5 360 L 404 360.5 L 401 361.5 L 400.5 363 L 400 361.5 L 401.5 360 Z " /><path fill="rgb(57,158,250)" stroke="rgb(57,158,250)" stroke-width="1" opacity="0.984313725490196" d="M 87.5 362 L 88.5 364 L 87.5 362 Z " /><path fill="rgb(57,158,250)" stroke="rgb(57,158,250)" stroke-width="1" opacity="0.984313725490196" d="M 350.5 364 L 350.5 367 Q 347.5 365.5 350.5 364 Z " /><path fill="rgb(57,158,250)" stroke="rgb(57,158,250)" stroke-width="1" opacity="0.984313725490196" d="M 89.5 365 L 91.5 368 L 89.5 365 Z " /><path fill="rgb(57,158,250)" stroke="rgb(57,158,250)" stroke-width="1" opacity="0.984313725490196" d="M 153.5 366 L 157.5 371 L 153.5 366 Z " /><path fill="rgb(57,158,250)" stroke="rgb(57,158,250)" stroke-width="1" opacity="0.984313725490196" d="M 93.5 370 L 105 382.5 L 95 373.5 L 93.5 370 Z " /><path fill="rgb(57,158,250)" stroke="rgb(57,158,250)" stroke-width="1" opacity="0.984313725490196" d="M 159.5 371 L 160.5 373 L 159.5 371 Z " /><path fill="rgb(57,158,250)" stroke="rgb(57,158,250)" stroke-width="1" opacity="0.984313725490196" d="M 163.5 374 L 164.5 376 L 163.5 374 Z " /><path fill="rgb(57,158,250)" stroke="rgb(57,158,250)" stroke-width="1" opacity="0.984313725490196" d="M 166.5 376 L 167.5 378 L 166.5 376 Z " /><path fill="rgb(57,158,250)" stroke="rgb(57,158,250)" stroke-width="1" opacity="0.984313725490196" d="M 169.5 378 L 170.5 380 L 169.5 378 Z " /><path fill="rgb(57,158,250)" stroke="rgb(57,158,250)" stroke-width="1" opacity="0.984313725490196" d="M 172.5 380 L 180 384.5 L 178.5 384 Q 172.9 383.2 172.5 380 Z " /><path fill="rgb(57,158,250)" stroke="rgb(57,158,250)" stroke-width="1" opacity="0.984313725490196" d="M 108.5 386 L 109.5 388 L 108.5 386 Z " /><path fill="rgb(57,158,250)" stroke="rgb(57,158,250)" stroke-width="1" opacity="0.984313725490196" d="M 310.5 387 L 309.5 389 L 303.5 391 L 303.5 390 L 310.5 387 Z " /><path fill="rgb(57,158,250)" stroke="rgb(57,158,250)" stroke-width="1" opacity="0.984313725490196" d="M 187.5 388 L 191 389.5 L 189.5 390 L 187.5 388 Z " /><path fill="rgb(57,158,250)" stroke="rgb(57,158,250)" stroke-width="1" opacity="0.984313725490196" d="M 112.5 390 L 115.5 394 L 112.5 390 Z " /><path fill="rgb(57,158,250)" stroke="rgb(57,158,250)" stroke-width="1" opacity="0.984313725490196" d="M 197.5 392 L 201 393.5 L 198.5 394 L 197.5 392 Z " /><path fill="rgb(57,158,250)" stroke="rgb(57,158,250)" stroke-width="1" opacity="0.984313725490196" d="M 298.5 392 L 300 392.5 L 295.5 394 L 295.5 393 L 298.5 392 Z " /><path fill="rgb(57,158,250)" stroke="rgb(57,158,250)" stroke-width="1" opacity="0.984313725490196" d="M 117.5 395 L 121.5 400 L 117.5 395 Z " /><path fill="rgb(57,158,250)" stroke="rgb(57,158,250)" stroke-width="1" opacity="0.984313725490196" d="M 285.5 396 L 287 396.5 L 280.5 399 L 281.5 397 L 285.5 396 Z " /><path fill="rgb(57,158,250)" stroke="rgb(57,158,250)" stroke-width="1" opacity="0.984313725490196" d="M 213.5 397 L 216 397.5 L 213.5 398 L 213.5 397 Z " /><path fill="rgb(57,158,250)" stroke="rgb(57,158,250)" stroke-width="1" opacity="0.984313725490196" d="M 222.5 399 L 225 399.5 L 222.5 400 L 222.5 399 Z " /><path fill="rgb(57,158,250)" stroke="rgb(57,158,250)" stroke-width="1" opacity="0.984313725490196" d="M 271.5 399 L 275 399.5 L 271.5 400 L 271.5 399 Z " /><path fill="rgb(57,158,250)" stroke="rgb(57,158,250)" stroke-width="1" opacity="0.984313725490196" d="M 123.5 400 L 125.5 403 L 123.5 400 Z " /><path fill="rgb(57,158,250)" stroke="rgb(57,158,250)" stroke-width="1" opacity="0.984313725490196" d="M 230.5 400 L 233 400.5 L 230.5 401 L 230.5 400 Z " /><path fill="rgb(57,158,250)" stroke="rgb(57,158,250)" stroke-width="1" opacity="0.984313725490196" d="M 234.5 400 L 235.5 401 L 260 401.5 L 235.5 402 L 234.5 400 Z " /><path fill="rgb(57,158,250)" stroke="rgb(57,158,250)" stroke-width="1" opacity="0.984313725490196" d="M 263.5 400 L 266 400.5 L 263.5 401 L 263.5 400 Z " /><path fill="rgb(57,158,250)" stroke="rgb(57,158,250)" stroke-width="1" opacity="0.984313725490196" d="M 129.5 405 L 135 409.5 L 132.5 408 L 129.5 405 Z " /><path fill="rgb(57,158,250)" stroke="rgb(57,158,250)" stroke-width="1" opacity="0.984313725490196" d="M 136.5 410 L 137.5 412 L 136.5 410 Z " /><path fill="rgb(57,158,250)" stroke="rgb(57,158,250)" stroke-width="1" opacity="0.984313725490196" d="M 142.5 414 L 143.5 416 L 142.5 414 Z " /><path fill="rgb(57,158,250)" stroke="rgb(57,158,250)" stroke-width="1" opacity="0.984313725490196" d="M 145.5 416 L 146.5 418 L 145.5 416 Z " /><path fill="rgb(57,158,250)" stroke="rgb(57,158,250)" stroke-width="1" opacity="0.984313725490196" d="M 150.5 419 L 151.5 421 L 150.5 419 Z " /><path fill="rgb(57,158,250)" stroke="rgb(57,158,250)" stroke-width="1" opacity="0.984313725490196" d="M 155.5 422 L 158 423.5 L 156.5 424 L 155.5 422 Z " /><path fill="rgb(57,158,250)" stroke="rgb(57,158,250)" stroke-width="1" opacity="0.984313725490196" d="M 341.5 422 L 340.5 424 L 336.5 426 L 337.5 424 L 341.5 422 Z " /><path fill="rgb(57,158,250)" stroke="rgb(57,158,250)" stroke-width="1" opacity="0.984313725490196" d="M 159.5 424 L 162 425.5 L 160.5 426 L 159.5 424 Z " /><path fill="rgb(57,158,250)" stroke="rgb(57,158,250)" stroke-width="1" opacity="0.984313725490196" d="M 163.5 426 L 166 427.5 L 164.5 428 L 163.5 426 Z " /><path fill="rgb(57,158,250)" stroke="rgb(57,158,250)" stroke-width="1" opacity="0.984313725490196" d="M 331.5 427 L 333 427.5 L 325.5 431 L 326.5 429 L 331.5 427 Z " /><path fill="rgb(57,158,250)" stroke="rgb(57,158,250)" stroke-width="1" opacity="0.984313725490196" d="M 167.5 428 L 170 429.5 L 168.5 430 L 167.5 428 Z " /><path fill="rgb(57,158,250)" stroke="rgb(57,158,250)" stroke-width="1" opacity="0.984313725490196" d="M 173.5 431 L 177 432.5 L 175.5 433 L 173.5 431 Z " /><path fill="rgb(57,158,250)" stroke="rgb(57,158,250)" stroke-width="1" opacity="0.984313725490196" d="M 312.5 435 L 311.5 437 L 309 436.5 L 312.5 435 Z " /><path fill="rgb(57,158,250)" stroke="rgb(57,158,250)" stroke-width="1" opacity="0.984313725490196" d="M 198.5 440 L 201 440.5 L 198.5 441 L 198.5 440 Z " /><path fill="rgb(57,158,250)" stroke="rgb(57,158,250)" stroke-width="1" opacity="0.984313725490196" d="M 296.5 440 L 299 440.5 L 296.5 441 L 296.5 440 Z " /><path fill="rgb(57,158,250)" stroke="rgb(57,158,250)" stroke-width="1" opacity="0.984313725490196" d="M 283.5 443 L 286 443.5 L 283.5 444 L 283.5 443 Z " /><path fill="rgb(57,158,250)" stroke="rgb(57,158,250)" stroke-width="1" opacity="0.984313725490196" d="M 277.5 444 L 280 444.5 L 277.5 445 L 277.5 444 Z " /><path fill="rgb(57,158,250)" stroke="rgb(57,158,250)" stroke-width="1" opacity="0.984313725490196" d="M 223.5 445 L 228 445.5 L 223.5 446 L 223.5 445 Z " /><path fill="rgb(57,158,250)" stroke="rgb(57,158,250)" stroke-width="1" opacity="0.984313725490196" d="M 269.5 445 L 275 445.5 L 269.5 446 L 269.5 445 Z " /><path fill="rgb(57,158,250)" stroke="rgb(57,158,250)" stroke-width="1" opacity="0.984313725490196" d="M 234.5 446 L 237 446.5 L 234.5 447 L 234.5 446 Z " /><path fill="rgb(57,158,250)" stroke="rgb(57,158,250)" stroke-width="1" opacity="0.984313725490196" d="M 261.5 446 L 264 446.5 L 261.5 447 L 261.5 446 Z " /><path fill="rgb(0,0,0)" stroke="rgb(0,0,0)" stroke-width="1" opacity="0" d="M 0 0 L 500 0 L 500 500 L 0 500 L 0 0 Z M 244 53 L 243 54 L 226 54 L 213 57 L 208 57 L 180 65 Q 147 77 123 98 Q 120 97 121 100 L 112 107 Q 113 109 110 108 L 110 110 L 109 110 L 87 135 L 72 159 Q 70 168 65 174 L 65 177 L 63 179 L 59 190 L 54 209 L 54 214 L 52 220 L 51 237 L 50 238 L 50 261 L 52 269 L 52 278 L 54 284 L 54 290 L 56 294 L 57 302 L 67 330 L 78 351 L 85 361 Q 84 363 87 362 L 88 366 L 95 374 Q 94 376 97 375 L 102 382 Q 101 384 104 383 L 104 385 L 106 385 L 106 387 L 108 387 L 125 403 Q 127 402 126 405 L 149 420 Q 152 419 151 422 L 154 422 L 179 435 L 188 437 L 190 439 L 201 441 L 209 444 L 235 447 L 236 448 L 263 448 L 270 446 L 279 446 L 314 437 L 346 422 L 368 407 L 380 396 Q 382 397 381 394 L 383 394 L 383 392 L 385 392 L 385 390 L 387 390 L 407 366 L 418 349 L 427 331 L 435 310 L 437 299 L 439 295 L 441 280 L 443 274 L 443 259 L 342 259 L 330 270 Q 327 269 328 272 Q 322 274 319 279 Q 316 278 317 281 L 291 302 L 288 306 L 384 307 Q 374 335 354 355 Q 355 357 352 356 L 352 358 L 350 358 L 350 360 L 334 373 Q 331 372 332 375 L 309 388 L 296 393 L 274 399 Q 265 398 260 401 L 237 401 L 207 395 L 184 386 L 161 371 Q 158 372 159 369 L 144 358 L 133 345 Q 134 342 131 343 L 122 330 L 109 303 L 103 282 Q 104 275 101 272 L 101 262 L 100 261 L 101 230 L 107 205 L 114 187 L 122 173 L 140 151 Q 139 148 142 149 L 142 147 L 160 133 Q 162 134 161 131 L 190 116 L 201 112 L 223 107 L 232 107 L 242 105 L 269 107 L 291 112 L 315 122 L 326 129 L 328 129 L 338 122 L 370 97 L 349 82 Q 346 83 347 80 L 345 80 L 340 76 L 325 69 L 322 69 L 310 63 L 296 59 L 269 54 L 244 53 Z M 441 132 L 438 134 L 434 134 L 423 138 L 407 141 L 355 156 Q 350 154 351 158 L 379 172 L 353 196 L 347 203 L 336 212 L 333 216 L 321 227 Q 318 226 319 229 L 317 229 L 317 231 L 315 231 L 315 233 L 314 233 L 289 257 Q 286 256 287 259 L 286 259 L 275 270 Q 272 269 273 272 L 261 283 Q 258 282 259 285 L 257 285 L 257 287 L 255 287 L 255 289 L 254 289 L 228 313 Q 225 312 226 315 L 207 330 Q 204 329 205 332 L 183 345 L 169 350 Q 162 348 164 353 L 188 353 L 193 351 L 206 349 L 220 344 Q 248 331 270 310 Q 272 311 271 308 L 273 308 L 273 306 L 283 299 Q 285 300 284 297 L 286 297 L 286 295 L 290 293 Q 292 294 291 291 L 296 288 Q 298 289 297 286 L 304 282 L 306 278 L 317 271 L 371 224 Q 373 225 372 222 L 386 211 Q 388 212 387 210 L 402 198 L 417 223 Q 416 226 420 224 L 420 220 L 422 217 L 424 206 L 426 203 L 428 192 L 430 189 L 433 174 L 435 171 L 435 167 L 437 164 L 437 160 L 439 157 L 445 134 Q 444 131 441 132 Z M 192 162 L 183 166 L 179 175 L 179 180 L 181 181 L 248 181 L 257 185 L 265 195 L 268 204 L 269 264 L 285 249 L 286 249 L 288 246 L 288 184 L 284 175 Q 285 172 282 173 L 280 169 Q 277 170 278 167 L 266 162 L 192 162 Z M 166 188 L 159 191 L 153 199 L 153 207 L 218 207 L 226 209 L 231 212 Q 238 217 240 227 L 240 289 L 243 289 L 260 273 L 260 202 L 258 199 L 258 196 L 254 194 L 254 192 L 244 188 L 166 188 Z M 146 214 Q 144 216 140 215 L 136 218 Q 133 217 134 220 L 132 220 L 128 229 Q 130 234 127 236 L 127 296 Q 130 297 128 303 Q 133 322 145 335 Q 144 337 147 336 L 147 338 L 149 338 L 149 340 L 159 344 L 171 342 L 185 336 L 211 318 L 213 314 L 219 310 Q 221 311 220 308 L 222 308 L 222 306 L 227 303 Q 229 304 228 301 L 233 298 L 233 230 L 230 223 L 223 216 L 214 214 L 146 214 Z " /><path fill="rgb(206,232,249)" stroke="rgb(206,232,249)" stroke-width="1" opacity="0.7176470588235294" d="M 243.5 53 L 251 53.5 L 243.5 54 L 243.5 53 Z " /><path fill="rgb(206,232,249)" stroke="rgb(206,232,249)" stroke-width="1" opacity="0.7176470588235294" d="M 225.5 54 L 232 54.5 L 218.5 56 L 218.5 55 Q 224 56.5 225.5 54 Z " /><path fill="rgb(206,232,249)" stroke="rgb(206,232,249)" stroke-width="1" opacity="0.7176470588235294" d="M 263.5 54 L 276 55.5 L 269.5 56 Q 268.3 53.8 263.5 55 L 263.5 54 Z " /><path fill="rgb(206,232,249)" stroke="rgb(206,232,249)" stroke-width="1" opacity="0.7176470588235294" d="M 213.5 56 L 216 56.5 Q 213.3 58.8 207.5 58 L 207.5 57 Q 212.3 58.3 213.5 56 Z " /><path fill="rgb(206,232,249)" stroke="rgb(206,232,249)" stroke-width="1" opacity="0.7176470588235294" d="M 278.5 56 L 296 59.5 L 292.5 60 L 287.5 58 L 278.5 57 L 278.5 56 Z " /><path fill="rgb(206,232,249)" stroke="rgb(206,232,249)" stroke-width="1" opacity="0.7176470588235294" d="M 203.5 58 L 206 58.5 L 203.5 59 L 203.5 58 Z " /><path fill="rgb(206,232,249)" stroke="rgb(206,232,249)" stroke-width="1" opacity="0.7176470588235294" d="M 198.5 59 L 202 59.5 L 198.5 60 L 198.5 59 Z " /><path fill="rgb(206,232,249)" stroke="rgb(206,232,249)" stroke-width="1" opacity="0.7176470588235294" d="M 297.5 60 L 309.5 63 L 311 64.5 L 309.5 65 L 299.5 62 L 297.5 60 Z " /><path fill="rgb(206,232,249)" stroke="rgb(206,232,249)" stroke-width="1" opacity="0.7176470588235294" d="M 191.5 61 L 194 61.5 L 188.5 63 L 188.5 62 L 191.5 61 Z " /><path fill="rgb(206,232,249)" stroke="rgb(206,232,249)" stroke-width="1" opacity="0.7176470588235294" d="M 185.5 63 L 187 63.5 L 183.5 65 L 183.5 64 L 185.5 63 Z " /><path fill="rgb(206,232,249)" stroke="rgb(206,232,249)" stroke-width="1" opacity="0.7176470588235294" d="M 179.5 65 L 181 65.5 L 177.5 67 L 177.5 66 L 179.5 65 Z " /><path fill="rgb(206,232,249)" stroke="rgb(206,232,249)" stroke-width="1" opacity="0.7176470588235294" d="M 313.5 65 L 317 66.5 L 315.5 67 L 313.5 65 Z " /><path fill="rgb(206,232,249)" stroke="rgb(206,232,249)" stroke-width="1" opacity="0.7176470588235294" d="M 174.5 67 L 176 67.5 L 172.5 69 L 172.5 68 L 174.5 67 Z " /><path fill="rgb(206,232,249)" stroke="rgb(206,232,249)" stroke-width="1" opacity="0.7176470588235294" d="M 318.5 67 L 321 68.5 L 319.5 68 L 318.5 67 Z " /><path fill="rgb(206,232,249)" stroke="rgb(206,232,249)" stroke-width="1" opacity="0.7176470588235294" d="M 169.5 69 L 171 69.5 L 165.5 72 L 165.5 71 L 169.5 69 Z " /><path fill="rgb(206,232,249)" stroke="rgb(206,232,249)" stroke-width="1" opacity="0.7176470588235294" d="M 323.5 69 L 339.5 76 L 344 79.5 L 342.5 80 L 324.5 71 L 323.5 69 Z " /><path fill="rgb(206,232,249)" stroke="rgb(206,232,249)" stroke-width="1" opacity="0.7176470588235294" d="M 162.5 72 L 164 72.5 L 161.5 74 L 162.5 72 Z " /><path fill="rgb(206,232,249)" stroke="rgb(206,232,249)" stroke-width="1" opacity="0.7176470588235294" d="M 158.5 74 L 160 74.5 L 153.5 78 L 154.5 76 L 158.5 74 Z " /><path fill="rgb(206,232,249)" stroke="rgb(206,232,249)" stroke-width="1" opacity="0.7176470588235294" d="M 151.5 78 L 150.5 80 L 146.5 82 L 147.5 80 L 151.5 78 Z " /><path fill="rgb(206,232,249)" stroke="rgb(206,232,249)" stroke-width="1" opacity="0.7176470588235294" d="M 345.5 80 Q 347.8 79.3 347 81.5 L 345.5 80 Z " /><path fill="rgb(206,232,249)" stroke="rgb(206,232,249)" stroke-width="1" opacity="0.7176470588235294" d="M 144.5 82 L 143.5 84 L 138.5 87 L 139.5 85 L 144.5 82 Z " /><path fill="rgb(206,232,249)" stroke="rgb(206,232,249)" stroke-width="1" opacity="0.7176470588235294" d="M 348.5 82 L 370 96.5 L 362.5 103 L 362 101 L 368 97.5 L 365.5 94 L 362 93 Q 363.1 90.3 360.5 91 L 349.5 84 L 348.5 82 Z " /><path fill="rgb(206,232,249)" stroke="rgb(206,232,249)" stroke-width="1" opacity="0.7176470588235294" d="M 136.5 87 L 134.5 90 L 121.5 99 L 121.5 98 L 136.5 87 Z " /><path fill="rgb(206,232,249)" stroke="rgb(206,232,249)" stroke-width="1" opacity="0.7176470588235294" d="M 119.5 100 L 113.5 107 L 112 106.5 L 119.5 100 Z " /><path fill="rgb(206,232,249)" stroke="rgb(206,232,249)" stroke-width="1" opacity="0.7176470588235294" d="M 360.5 103 L 357.5 107 L 330.5 127 L 325.5 129 L 324.5 127 L 326.5 128 L 360.5 103 Z " /><path fill="rgb(206,232,249)" stroke="rgb(206,232,249)" stroke-width="1" opacity="0.7176470588235294" d="M 245.5 104 L 250 104.5 L 245.5 105 L 245.5 104 Z " /><path fill="rgb(206,232,249)" stroke="rgb(206,232,249)" stroke-width="1" opacity="0.7176470588235294" d="M 232.5 105 L 241 105.5 L 224.5 107 L 224.5 106 Q 230.7 107.8 232.5 105 Z " /><path fill="rgb(206,232,249)" stroke="rgb(206,232,249)" stroke-width="1" opacity="0.7176470588235294" d="M 251.5 105 L 268.5 106 L 282 109.5 L 280.5 110 L 268.5 107 L 251.5 106 L 251.5 105 Z " /><path fill="rgb(206,232,249)" stroke="rgb(206,232,249)" stroke-width="1" opacity="0.7176470588235294" d="M 222.5 106 L 221.5 108 L 209.5 110 L 209.5 109 L 222.5 106 Z " /><path fill="rgb(206,232,249)" stroke="rgb(206,232,249)" stroke-width="1" opacity="0.7176470588235294" d="M 108.5 110 L 110 110.5 L 106 113.5 L 104.5 116 L 99.5 120 L 108.5 110 Z " /><path fill="rgb(206,232,249)" stroke="rgb(206,232,249)" stroke-width="1" opacity="0.7176470588235294" d="M 204.5 110 L 208 110.5 L 201.5 112 L 201.5 111 L 204.5 110 Z " /><path fill="rgb(206,232,249)" stroke="rgb(206,232,249)" stroke-width="1" opacity="0.7176470588235294" d="M 283.5 110 L 290 111.5 L 287.5 112 L 283.5 111 L 283.5 110 Z " /><path fill="rgb(206,232,249)" stroke="rgb(206,232,249)" stroke-width="1" opacity="0.7176470588235294" d="M 197.5 112 L 200 112.5 L 196.5 114 L 197.5 112 Z " /><path fill="rgb(206,232,249)" stroke="rgb(206,232,249)" stroke-width="1" opacity="0.7176470588235294" d="M 291.5 112 L 295 113.5 L 293.5 114 L 291.5 112 Z " /><path fill="rgb(206,232,249)" stroke="rgb(206,232,249)" stroke-width="1" opacity="0.7176470588235294" d="M 192.5 114 L 194 114.5 L 190.5 116 L 190.5 115 L 192.5 114 Z " /><path fill="rgb(206,232,249)" stroke="rgb(206,232,249)" stroke-width="1" opacity="0.7176470588235294" d="M 297.5 114 L 314 121.5 L 312.5 122 L 301.5 116 L 298.5 116 L 297.5 114 Z " /><path fill="rgb(206,232,249)" stroke="rgb(206,232,249)" stroke-width="1" opacity="0.7176470588235294" d="M 187.5 116 L 189 116.5 L 186.5 118 L 187.5 116 Z " /><path fill="rgb(206,232,249)" stroke="rgb(206,232,249)" stroke-width="1" opacity="0.7176470588235294" d="M 183.5 118 L 185 118.5 L 162.5 131 L 164.5 128 L 183.5 118 Z " /><path fill="rgb(206,232,249)" stroke="rgb(206,232,249)" stroke-width="1" opacity="0.7176470588235294" d="M 98.5 121 L 95.5 125 L 98.5 121 Z " /><path fill="rgb(206,232,249)" stroke="rgb(206,232,249)" stroke-width="1" opacity="0.7176470588235294" d="M 315.5 122 L 323 126.5 L 321.5 127 L 316.5 124 L 315.5 122 Z " /><path fill="rgb(206,232,249)" stroke="rgb(206,232,249)" stroke-width="1" opacity="0.7176470588235294" d="M 94.5 126 L 91.5 130 L 94.5 126 Z " /><path fill="rgb(206,232,249)" stroke="rgb(206,232,249)" stroke-width="1" opacity="0.7176470588235294" d="M 90.5 131 L 88 134.5 L 82.5 143 L 83 141.5 L 90.5 131 Z " /><path fill="rgb(206,232,249)" stroke="rgb(206,232,249)" stroke-width="1" opacity="0.7176470588235294" d="M 160.5 131 L 161 133 L 154.5 137 L 156.5 134 L 160.5 131 Z " /><path fill="rgb(206,232,249)" stroke="rgb(206,232,249)" stroke-width="1" opacity="0.7176470588235294" d="M 440.5 132 Q 444.3 131.3 445 133.5 L 443.5 133 L 438.5 134 L 438.5 133 L 440.5 132 Z " /><path fill="rgb(206,232,249)" stroke="rgb(206,232,249)" stroke-width="1" opacity="0.7176470588235294" d="M 433.5 134 L 436 134.5 L 430.5 136 L 430.5 135 L 433.5 134 Z " /><path fill="rgb(206,232,249)" stroke="rgb(206,232,249)" stroke-width="1" opacity="0.7176470588235294" d="M 443.5 135 L 444 137.5 L 443 137.5 L 443.5 135 Z " /><path fill="rgb(206,232,249)" stroke="rgb(206,232,249)" stroke-width="1" opacity="0.7176470588235294" d="M 425.5 136 L 429 136.5 L 423.5 138 L 423.5 137 L 425.5 136 Z " /><path fill="rgb(206,232,249)" stroke="rgb(206,232,249)" stroke-width="1" opacity="0.7176470588235294" d="M 152.5 137 L 143.5 147 L 143 145.5 L 152.5 137 Z " /><path fill="rgb(206,232,249)" stroke="rgb(206,232,249)" stroke-width="1" opacity="0.7176470588235294" d="M 418.5 138 L 421 138.5 L 414.5 140 L 414.5 139 L 418.5 138 Z " /><path fill="rgb(206,232,249)" stroke="rgb(206,232,249)" stroke-width="1" opacity="0.7176470588235294" d="M 442.5 139 L 443 142.5 L 441 145.5 L 441 149.5 L 437.5 159 L 437 157.5 L 442.5 139 Z " /><path fill="rgb(206,232,249)" stroke="rgb(206,232,249)" stroke-width="1" opacity="0.7176470588235294" d="M 410.5 140 L 413 140.5 L 396.5 145 L 396.5 144 L 410.5 140 Z " /><path fill="rgb(206,232,249)" stroke="rgb(206,232,249)" stroke-width="1" opacity="0.7176470588235294" d="M 81.5 144 L 80.5 146 L 81.5 144 Z " /><path fill="rgb(206,232,249)" stroke="rgb(206,232,249)" stroke-width="1" opacity="0.7176470588235294" d="M 391.5 145 L 395 145.5 L 389.5 147 L 389.5 146 L 391.5 145 Z " /><path fill="rgb(206,232,249)" stroke="rgb(206,232,249)" stroke-width="1" opacity="0.7176470588235294" d="M 79.5 147 L 78.5 149 L 79.5 147 Z " /><path fill="rgb(206,232,249)" stroke="rgb(206,232,249)" stroke-width="1" opacity="0.7176470588235294" d="M 384.5 147 L 387 147.5 L 381.5 149 L 381.5 148 L 384.5 147 Z " /><path fill="rgb(206,232,249)" stroke="rgb(206,232,249)" stroke-width="1" opacity="0.7176470588235294" d="M 376.5 149 L 379 149.5 L 374.5 151 L 374.5 150 L 376.5 149 Z " /><path fill="rgb(206,232,249)" stroke="rgb(206,232,249)" stroke-width="1" opacity="0.7176470588235294" d="M 77.5 150 L 77 151.5 L 71.5 162 L 71 160.5 L 77.5 150 Z " /><path fill="rgb(206,232,249)" stroke="rgb(206,232,249)" stroke-width="1" opacity="0.7176470588235294" d="M 139.5 150 L 133 157.5 L 122.5 172 L 123 170.5 Q 129.4 158.4 139.5 150 Z " /><path fill="rgb(206,232,249)" stroke="rgb(206,232,249)" stroke-width="1" opacity="0.7176470588235294" d="M 369.5 151 L 372 151.5 L 366.5 153 L 366.5 152 L 369.5 151 Z " /><path fill="rgb(206,232,249)" stroke="rgb(206,232,249)" stroke-width="1" opacity="0.7176470588235294" d="M 362.5 153 L 365 153.5 L 362.5 154 L 362.5 153 Z " /><path fill="rgb(206,232,249)" stroke="rgb(206,232,249)" stroke-width="1" opacity="0.7176470588235294" d="M 358.5 154 L 361 154.5 L 358.5 155 L 358.5 154 Z " /><path fill="rgb(206,232,249)" stroke="rgb(206,232,249)" stroke-width="1" opacity="0.7176470588235294" d="M 351 156 L 354 156.5 L 352 157.5 L 352.5 159 L 351 156 Z " /><path fill="rgb(206,232,249)" stroke="rgb(206,232,249)" stroke-width="1" opacity="0.7176470588235294" d="M 354.5 159 L 358 160.5 L 356.5 161 L 354.5 159 Z " /><path fill="rgb(206,232,249)" stroke="rgb(206,232,249)" stroke-width="1" opacity="0.7176470588235294" d="M 359.5 161 L 368 165.5 L 366.5 165 Q 360 164.5 359.5 161 Z " /><path fill="rgb(206,232,249)" stroke="rgb(206,232,249)" stroke-width="1" opacity="0.7176470588235294" d="M 436.5 161 L 437 163.5 L 435.5 166 L 435 163.5 L 436.5 161 Z " /><path fill="rgb(206,232,249)" stroke="rgb(206,232,249)" stroke-width="1" opacity="0.7176470588235294" d="M 191.5 162 L 265.5 162 L 278 167 Q 276.9 169.7 279.5 169 L 282 173 Q 284.7 171.9 284 174.5 L 288 183.5 L 288 245.5 L 286 249 L 284.5 249 L 268.5 264 L 268 203.5 L 265 194.5 L 256.5 185 L 248 181.5 L 251.5 181 Q 259.3 184.3 264 190.5 L 267 195.5 L 269 203.5 L 269.5 262 L 277 255.5 L 279.5 252 L 287 245.5 L 287 184.5 Q 284.6 173.4 276.5 168 L 264.5 163 L 191.5 163 L 189.5 164 L 189.5 163 L 191.5 162 Z " /><path fill="rgb(206,232,249)" stroke="rgb(206,232,249)" stroke-width="1" opacity="0.7176470588235294" d="M 186.5 164 L 188 164.5 L 183 168.5 Q 179.3 171.3 180 178.5 L 181.5 180 L 247 180.5 L 180.5 181 Q 177.8 179.8 179 174.5 L 183 166 L 186.5 164 Z " /><path fill="rgb(206,232,249)" stroke="rgb(206,232,249)" stroke-width="1" opacity="0.7176470588235294" d="M 369.5 166 L 377 169.5 L 375.5 170 L 369.5 167 L 369.5 166 Z " /><path fill="rgb(206,232,249)" stroke="rgb(206,232,249)" stroke-width="1" opacity="0.7176470588235294" d="M 434.5 168 L 435 170.5 L 433.5 173 L 433 171.5 L 434.5 168 Z " /><path fill="rgb(206,232,249)" stroke="rgb(206,232,249)" stroke-width="1" opacity="0.7176470588235294" d="M 67.5 169 L 68 170.5 L 65.5 175 L 65 173.5 L 67.5 169 Z " /><path fill="rgb(206,232,249)" stroke="rgb(206,232,249)" stroke-width="1" opacity="0.7176470588235294" d="M 378.5 170 L 380 171.5 L 368.5 183 L 350.5 200 L 349 200 Q 350.1 202.7 347.5 202 L 352.5 196 L 379 171.5 L 378.5 170 Z " /><path fill="rgb(206,232,249)" stroke="rgb(206,232,249)" stroke-width="1" opacity="0.7176470588235294" d="M 121.5 173 L 121 174.5 L 114.5 186 L 115 184.5 L 121.5 173 Z " /><path fill="rgb(206,232,249)" stroke="rgb(206,232,249)" stroke-width="1" opacity="0.7176470588235294" d="M 432.5 176 L 432 177.5 L 428.5 191 L 428 189.5 L 431 177.5 L 432.5 176 Z " /><path fill="rgb(206,232,249)" stroke="rgb(206,232,249)" stroke-width="1" opacity="0.7176470588235294" d="M 64.5 177 L 64 178.5 L 61.5 185 L 61 183.5 L 64.5 177 Z " /><path fill="rgb(206,232,249)" stroke="rgb(206,232,249)" stroke-width="1" opacity="0.7176470588235294" d="M 60.5 187 L 61 188.5 L 59.5 191 L 59 189.5 L 60.5 187 Z " /><path fill="rgb(206,232,249)" stroke="rgb(206,232,249)" stroke-width="1" opacity="0.7176470588235294" d="M 113.5 187 L 114 188.5 L 112.5 191 L 112 189.5 L 113.5 187 Z " /><path fill="rgb(206,232,249)" stroke="rgb(206,232,249)" stroke-width="1" opacity="0.7176470588235294" d="M 165.5 188 L 243.5 188 L 254 192 L 254 194 L 258 196 L 258 198.5 L 260 201.5 L 260 272.5 L 254 277.5 L 259 271.5 L 259 202.5 Q 257.2 195.3 251.5 192 L 242.5 189 L 237.5 190 L 235.5 189 L 234.5 190 L 226.5 190 L 225.5 189 L 165.5 189 L 163.5 190 L 163.5 189 L 165.5 188 Z " /><path fill="rgb(206,232,249)" stroke="rgb(206,232,249)" stroke-width="1" opacity="0.7176470588235294" d="M 160.5 190 L 162 190.5 L 155 196.5 L 153.5 202 L 153 198.5 L 158.5 191 L 160.5 190 Z " /><path fill="rgb(206,232,249)" stroke="rgb(206,232,249)" stroke-width="1" opacity="0.7176470588235294" d="M 111.5 192 L 112 193.5 L 110.5 196 L 110 194.5 L 111.5 192 Z " /><path fill="rgb(206,232,249)" stroke="rgb(206,232,249)" stroke-width="1" opacity="0.7176470588235294" d="M 427.5 192 L 428 195.5 L 426.5 199 L 426 196.5 L 427.5 192 Z " /><path fill="rgb(206,232,249)" stroke="rgb(206,232,249)" stroke-width="1" opacity="0.7176470588235294" d="M 400.5 197 L 404 199.5 L 408 206.5 L 406 205.5 L 401.5 198 L 395.5 203 L 400.5 197 Z " /><path fill="rgb(206,232,249)" stroke="rgb(206,232,249)" stroke-width="1" opacity="0.7176470588235294" d="M 108.5 200 L 109 201.5 L 107.5 204 L 107 202.5 L 108.5 200 Z " /><path fill="rgb(206,232,249)" stroke="rgb(206,232,249)" stroke-width="1" opacity="0.7176470588235294" d="M 425.5 200 L 426 202.5 L 424.5 205 L 424 203.5 L 425.5 200 Z " /><path fill="rgb(206,232,249)" stroke="rgb(206,232,249)" stroke-width="1" opacity="0.7176470588235294" d="M 345.5 203 L 337.5 212 L 345.5 203 Z " /><path fill="rgb(206,232,249)" stroke="rgb(206,232,249)" stroke-width="1" opacity="0.7176470588235294" d="M 393.5 203 L 389.5 208 L 387 209.5 Q 387.8 211.8 385.5 211 L 372 222 Q 373.1 224.7 370.5 224 L 349.5 243 L 356.5 235 L 393.5 203 Z " /><path fill="rgb(206,232,249)" stroke="rgb(206,232,249)" stroke-width="1" opacity="0.7176470588235294" d="M 55.5 204 L 56 206.5 L 55 206.5 L 55.5 204 Z " /><path fill="rgb(206,232,249)" stroke="rgb(206,232,249)" stroke-width="1" opacity="0.7176470588235294" d="M 106.5 205 L 107 207.5 L 106 207.5 L 106.5 205 Z " /><path fill="rgb(206,232,249)" stroke="rgb(206,232,249)" stroke-width="1" opacity="0.7176470588235294" d="M 153.5 206 L 217.5 206 Q 218.7 208.3 223.5 207 L 229.5 210 L 236 215.5 L 241 226.5 L 241 288 L 242.5 288 L 252.5 278 L 242.5 289 L 240 288.5 L 240 226.5 Q 237.9 216.6 230.5 212 L 225.5 209 L 217.5 207 L 153.5 207 L 153.5 206 Z " /><path fill="rgb(206,232,249)" stroke="rgb(206,232,249)" stroke-width="1" opacity="0.7176470588235294" d="M 423.5 207 L 424 209.5 L 422.5 213 L 422 210.5 L 423.5 207 Z " /><path fill="rgb(206,232,249)" stroke="rgb(206,232,249)" stroke-width="1" opacity="0.7176470588235294" d="M 54.5 208 L 55 210.5 L 54 210.5 L 54.5 208 Z " /><path fill="rgb(206,232,249)" stroke="rgb(206,232,249)" stroke-width="1" opacity="0.7176470588235294" d="M 408.5 208 L 412 213.5 L 410 212.5 L 408.5 208 Z " /><path fill="rgb(206,232,249)" stroke="rgb(206,232,249)" stroke-width="1" opacity="0.7176470588235294" d="M 335.5 212 L 333.5 215 L 335.5 212 Z " /><path fill="rgb(206,232,249)" stroke="rgb(206,232,249)" stroke-width="1" opacity="0.7176470588235294" d="M 53.5 214 L 54 217.5 L 53 217.5 L 53.5 214 Z " /><path fill="rgb(206,232,249)" stroke="rgb(206,232,249)" stroke-width="1" opacity="0.7176470588235294" d="M 145.5 214 L 213.5 214 L 222.5 216 L 224 217.5 L 222.5 218 L 218.5 216 L 175.5 216 L 174.5 215 L 172.5 215 L 145.5 215 L 145.5 214 Z " /><path fill="rgb(206,232,249)" stroke="rgb(206,232,249)" stroke-width="1" opacity="0.7176470588235294" d="M 421.5 214 L 422 216.5 L 420.5 219 L 420 217.5 L 421.5 214 Z " /><path fill="rgb(206,232,249)" stroke="rgb(206,232,249)" stroke-width="1" opacity="0.7176470588235294" d="M 139.5 215 L 142 215.5 L 134.5 219 L 134.5 218 L 139.5 215 Z " /><path fill="rgb(206,232,249)" stroke="rgb(206,232,249)" stroke-width="1" opacity="0.7176470588235294" d="M 412.5 215 L 413.5 217 L 412.5 215 Z " /><path fill="rgb(206,232,249)" stroke="rgb(206,232,249)" stroke-width="1" opacity="0.7176470588235294" d="M 103.5 216 L 104 218.5 L 103 218.5 L 103.5 216 Z " /><path fill="rgb(206,232,249)" stroke="rgb(206,232,249)" stroke-width="1" opacity="0.7176470588235294" d="M 330.5 217 L 322.5 226 L 330.5 217 Z " /><path fill="rgb(206,232,249)" stroke="rgb(206,232,249)" stroke-width="1" opacity="0.7176470588235294" d="M 225.5 218 Q 230.5 221 232 227.5 L 231 227.5 L 225.5 218 Z " /><path fill="rgb(206,232,249)" stroke="rgb(206,232,249)" stroke-width="1" opacity="0.7176470588235294" d="M 414.5 218 L 415.5 220 L 414.5 218 Z " /><path fill="rgb(206,232,249)" stroke="rgb(206,232,249)" stroke-width="1" opacity="0.7176470588235294" d="M 52.5 219 L 53 222.5 L 52 222.5 L 52.5 219 Z " /><path fill="rgb(206,232,249)" stroke="rgb(206,232,249)" stroke-width="1" opacity="0.7176470588235294" d="M 132 220 L 134 220.5 L 129 228.5 L 129 235 L 199.5 235 L 210 241.5 L 214 251.5 L 214 312 L 232 297.5 L 232.5 229 L 233 297.5 L 228 301 Q 229.1 303.7 226.5 303 L 222 306 L 222 308 L 220 308 Q 221.1 310.7 218.5 310 L 213 314 L 210.5 318 L 184.5 336 L 170.5 342 L 158.5 344 L 149 340 L 149 338 L 147 338 L 147 336 Q 144.3 337.1 145 334.5 Q 133 322 128 302.5 Q 129.5 297 127 295.5 L 127 235.5 Q 129.5 234 128 228.5 L 132 220 Z M 144 267 Q 140 268 141 273 L 144 275 L 196 275 Q 198 274 197 269 L 196 267 L 144 267 Z M 145 287 L 141 290 L 142 295 L 145 296 L 176 296 L 178 295 L 180 292 L 179 288 L 177 287 L 145 287 Z " /><path fill="rgb(206,232,249)" stroke="rgb(206,232,249)" stroke-width="1" opacity="0.7176470588235294" d="M 102.5 221 L 103 224.5 L 102 224.5 L 102.5 221 Z " /><path fill="rgb(206,232,249)" stroke="rgb(206,232,249)" stroke-width="1" opacity="0.7176470588235294" d="M 416.5 221 Q 418.2 224.1 420 222.5 Q 420.7 225.5 417 224 L 416.5 221 Z " /><path fill="rgb(206,232,249)" stroke="rgb(206,232,249)" stroke-width="1" opacity="0.7176470588235294" d="M 101.5 226 L 102 228.5 L 101 228.5 L 101.5 226 Z " /><path fill="rgb(206,232,249)" stroke="rgb(206,232,249)" stroke-width="1" opacity="0.7176470588235294" d="M 51.5 229 L 52 234.5 L 51 234.5 L 51.5 229 Z " /><path fill="rgb(206,232,249)" stroke="rgb(206,232,249)" stroke-width="1" opacity="0.7176470588235294" d="M 100.5 233 L 101 238.5 L 100 238.5 L 100.5 233 Z " /><path fill="rgb(206,232,249)" stroke="rgb(206,232,249)" stroke-width="1" opacity="0.7176470588235294" d="M 313.5 233 L 304.5 243 L 313.5 233 Z " /><path fill="rgb(206,232,249)" stroke="rgb(206,232,249)" stroke-width="1" opacity="0.7176470588235294" d="M 50.5 237 L 51 260.5 L 50 260.5 L 50.5 237 Z " /><path fill="rgb(206,232,249)" stroke="rgb(206,232,249)" stroke-width="1" opacity="0.7176470588235294" d="M 99.5 241 L 100 247.5 L 99 247.5 L 99.5 241 Z " /><path fill="rgb(206,232,249)" stroke="rgb(206,232,249)" stroke-width="1" opacity="0.7176470588235294" d="M 347.5 243 L 341.5 250 L 347.5 243 Z " /><path fill="rgb(206,232,249)" stroke="rgb(206,232,249)" stroke-width="1" opacity="0.7176470588235294" d="M 301.5 244 L 290.5 256 L 301.5 244 Z " /><path fill="rgb(206,232,249)" stroke="rgb(206,232,249)" stroke-width="1" opacity="0.7176470588235294" d="M 339.5 250 L 335.5 255 L 329.5 260 L 329 258.5 L 339.5 250 Z " /><path fill="rgb(206,232,249)" stroke="rgb(206,232,249)" stroke-width="1" opacity="0.7176470588235294" d="M 99.5 251 L 100 259.5 L 99 259.5 L 99.5 251 Z " /><path fill="rgb(206,232,249)" stroke="rgb(206,232,249)" stroke-width="1" opacity="0.7176470588235294" d="M 285.5 259 L 287 259.5 L 273.5 271 L 273.5 270 L 285.5 259 Z " /><path fill="rgb(206,232,249)" stroke="rgb(206,232,249)" stroke-width="1" opacity="0.7176470588235294" d="M 341.5 259 L 442.5 259 L 443 259.5 L 443 273.5 L 442 273.5 L 442 260.5 L 441.5 260 L 342.5 260 L 337.5 264 L 341.5 259 Z " /><path fill="rgb(206,232,249)" stroke="rgb(206,232,249)" stroke-width="1" opacity="0.7176470588235294" d="M 100.5 261 L 101 266.5 L 100 266.5 L 100.5 261 Z " /><path fill="rgb(206,232,249)" stroke="rgb(206,232,249)" stroke-width="1" opacity="0.7176470588235294" d="M 326.5 261 L 324.5 264 L 326.5 261 Z " /><path fill="rgb(206,232,249)" stroke="rgb(206,232,249)" stroke-width="1" opacity="0.7176470588235294" d="M 51.5 262 L 52 267.5 L 51 267.5 L 51.5 262 Z " /><path fill="rgb(206,232,249)" stroke="rgb(206,232,249)" stroke-width="1" opacity="0.7176470588235294" d="M 322.5 264 L 316.5 271 L 322.5 264 Z " /><path fill="rgb(206,232,249)" stroke="rgb(206,232,249)" stroke-width="1" opacity="0.7176470588235294" d="M 334.5 265 L 329.5 271 L 328 270.5 L 334.5 265 Z " /><path fill="rgb(206,232,249)" stroke="rgb(206,232,249)" stroke-width="1" opacity="0.7176470588235294" d="M 314.5 271 L 311.5 275 L 307.5 278 L 310.5 274 L 314.5 271 Z " /><path fill="rgb(206,232,249)" stroke="rgb(206,232,249)" stroke-width="1" opacity="0.7176470588235294" d="M 101.5 272 L 103 279.5 L 102 279.5 L 101.5 272 Z " /><path fill="rgb(206,232,249)" stroke="rgb(206,232,249)" stroke-width="1" opacity="0.7176470588235294" d="M 326.5 272 L 324.5 275 L 317.5 281 L 317 279 L 326.5 272 Z " /><path fill="rgb(206,232,249)" stroke="rgb(206,232,249)" stroke-width="1" opacity="0.7176470588235294" d="M 270.5 273 L 255.5 289 L 255 287 L 257 287 L 257 285 L 259 285 Q 257.9 282.3 260.5 283 L 270.5 273 Z " /><path fill="rgb(206,232,249)" stroke="rgb(206,232,249)" stroke-width="1" opacity="0.7176470588235294" d="M 52.5 275 L 53 277.5 L 52 277.5 L 52.5 275 Z " /><path fill="rgb(206,232,249)" stroke="rgb(206,232,249)" stroke-width="1" opacity="0.7176470588235294" d="M 441.5 275 L 442 278.5 L 441 278.5 L 441.5 275 Z " /><path fill="rgb(206,232,249)" stroke="rgb(206,232,249)" stroke-width="1" opacity="0.7176470588235294" d="M 305.5 279 L 303.5 282 L 305.5 279 Z " /><path fill="rgb(206,232,249)" stroke="rgb(206,232,249)" stroke-width="1" opacity="0.7176470588235294" d="M 315.5 281 L 311.5 286 L 315.5 281 Z " /><path fill="rgb(206,232,249)" stroke="rgb(206,232,249)" stroke-width="1" opacity="0.7176470588235294" d="M 103.5 282 L 104 284.5 L 103 284.5 L 103.5 282 Z " /><path fill="rgb(206,232,249)" stroke="rgb(206,232,249)" stroke-width="1" opacity="0.7176470588235294" d="M 301.5 282 L 298.5 286 L 301.5 282 Z " /><path fill="rgb(206,232,249)" stroke="rgb(206,232,249)" stroke-width="1" opacity="0.7176470588235294" d="M 440.5 282 L 441 285.5 L 440 285.5 L 440.5 282 Z " /><path fill="rgb(206,232,249)" stroke="rgb(206,232,249)" stroke-width="1" opacity="0.7176470588235294" d="M 296.5 286 L 297 288 L 292.5 291 L 296.5 286 Z " /><path fill="rgb(206,232,249)" stroke="rgb(206,232,249)" stroke-width="1" opacity="0.7176470588235294" d="M 309.5 286 L 304.5 292 L 299.5 296 L 303.5 291 L 309.5 286 Z " /><path fill="rgb(206,232,249)" stroke="rgb(206,232,249)" stroke-width="1" opacity="0.7176470588235294" d="M 54.5 287 L 55 289.5 L 54 289.5 L 54.5 287 Z " /><path fill="rgb(206,232,249)" stroke="rgb(206,232,249)" stroke-width="1" opacity="0.7176470588235294" d="M 439.5 287 L 440 289.5 L 439 289.5 L 439.5 287 Z " /><path fill="rgb(206,232,249)" stroke="rgb(206,232,249)" stroke-width="1" opacity="0.7176470588235294" d="M 253.5 289 L 245.5 298 L 253.5 289 Z " /><path fill="rgb(206,232,249)" stroke="rgb(206,232,249)" stroke-width="1" opacity="0.7176470588235294" d="M 105.5 291 L 107 295.5 L 106 295.5 L 105.5 291 Z " /><path fill="rgb(206,232,249)" stroke="rgb(206,232,249)" stroke-width="1" opacity="0.7176470588235294" d="M 289.5 292 L 291 292.5 L 287.5 295 L 289.5 292 Z " /><path fill="rgb(206,232,249)" stroke="rgb(206,232,249)" stroke-width="1" opacity="0.7176470588235294" d="M 438.5 292 L 439 294.5 L 438 294.5 L 438.5 292 Z " /><path fill="rgb(206,232,249)" stroke="rgb(206,232,249)" stroke-width="1" opacity="0.7176470588235294" d="M 284.5 296 L 286 296.5 L 284 297 Q 285.1 299.7 282.5 299 L 279 301.5 L 284.5 296 Z " /><path fill="rgb(206,232,249)" stroke="rgb(206,232,249)" stroke-width="1" opacity="0.7176470588235294" d="M 297.5 296 L 292.5 302 L 297.5 296 Z " /><path fill="rgb(206,232,249)" stroke="rgb(206,232,249)" stroke-width="1" opacity="0.7176470588235294" d="M 107.5 297 L 109 300.5 L 108 300.5 L 107.5 297 Z " /><path fill="rgb(206,232,249)" stroke="rgb(206,232,249)" stroke-width="1" opacity="0.7176470588235294" d="M 243.5 298 L 233.5 309 L 228.5 313 L 233.5 307 L 243.5 298 Z " /><path fill="rgb(206,232,249)" stroke="rgb(206,232,249)" stroke-width="1" opacity="0.7176470588235294" d="M 436.5 300 L 437 302.5 L 435.5 306 L 435 303.5 L 436.5 300 Z " /><path fill="rgb(206,232,249)" stroke="rgb(206,232,249)" stroke-width="1" opacity="0.7176470588235294" d="M 290.5 302 L 289 304.5 L 288.5 306 L 288 304.5 L 290.5 302 Z " /><path fill="rgb(206,232,249)" stroke="rgb(206,232,249)" stroke-width="1" opacity="0.7176470588235294" d="M 109.5 303 L 111 306.5 L 110 306.5 L 109.5 303 Z " /><path fill="rgb(206,232,249)" stroke="rgb(206,232,249)" stroke-width="1" opacity="0.7176470588235294" d="M 276.5 303 L 274.5 306 L 276.5 303 Z " /><path fill="rgb(206,232,249)" stroke="rgb(206,232,249)" stroke-width="1" opacity="0.7176470588235294" d="M 59.5 307 L 61 310.5 L 60 310.5 L 59.5 307 Z " /><path fill="rgb(206,232,249)" stroke="rgb(206,232,249)" stroke-width="1" opacity="0.7176470588235294" d="M 271.5 307 L 273 307.5 L 271 308 Q 272.1 310.7 269.5 310 L 266 312.5 L 271.5 307 Z " /><path fill="rgb(206,232,249)" stroke="rgb(206,232,249)" stroke-width="1" opacity="0.7176470588235294" d="M 383.5 307 L 384 308.5 L 382.5 311 L 382 309.5 L 383.5 307 Z " /><path fill="rgb(206,232,249)" stroke="rgb(206,232,249)" stroke-width="1" opacity="0.7176470588235294" d="M 434.5 307 L 435 309.5 L 433.5 312 L 433 310.5 L 434.5 307 Z " /><path fill="rgb(206,232,249)" stroke="rgb(206,232,249)" stroke-width="1" opacity="0.7176470588235294" d="M 112.5 310 L 114 313.5 L 113 313.5 L 112.5 310 Z " /><path fill="rgb(206,232,249)" stroke="rgb(206,232,249)" stroke-width="1" opacity="0.7176470588235294" d="M 61.5 313 L 63 316.5 L 62 316.5 L 61.5 313 Z " /><path fill="rgb(206,232,249)" stroke="rgb(206,232,249)" stroke-width="1" opacity="0.7176470588235294" d="M 264.5 313 L 259.5 319 L 264.5 313 Z " /><path fill="rgb(206,232,249)" stroke="rgb(206,232,249)" stroke-width="1" opacity="0.7176470588235294" d="M 432.5 313 L 433 314.5 L 431.5 317 L 431 315.5 L 432.5 313 Z " /><path fill="rgb(206,232,249)" stroke="rgb(206,232,249)" stroke-width="1" opacity="0.7176470588235294" d="M 114.5 315 L 116 317.5 L 115 317.5 L 114.5 315 Z " /><path fill="rgb(206,232,249)" stroke="rgb(206,232,249)" stroke-width="1" opacity="0.7176470588235294" d="M 224.5 315 L 220.5 320 L 224.5 315 Z " /><path fill="rgb(206,232,249)" stroke="rgb(206,232,249)" stroke-width="1" opacity="0.7176470588235294" d="M 116.5 319 L 121 326.5 L 119 325.5 L 116.5 319 Z " /><path fill="rgb(206,232,249)" stroke="rgb(206,232,249)" stroke-width="1" opacity="0.7176470588235294" d="M 257.5 319 L 256.5 321 L 257.5 319 Z " /><path fill="rgb(206,232,249)" stroke="rgb(206,232,249)" stroke-width="1" opacity="0.7176470588235294" d="M 378.5 319 L 379 320.5 L 375.5 326 L 376 324.5 L 378.5 319 Z " /><path fill="rgb(206,232,249)" stroke="rgb(206,232,249)" stroke-width="1" opacity="0.7176470588235294" d="M 430.5 319 L 431 320.5 L 428.5 325 L 428 323.5 L 430.5 319 Z " /><path fill="rgb(206,232,249)" stroke="rgb(206,232,249)" stroke-width="1" opacity="0.7176470588235294" d="M 218.5 320 L 216.5 323 L 218.5 320 Z " /><path fill="rgb(206,232,249)" stroke="rgb(206,232,249)" stroke-width="1" opacity="0.7176470588235294" d="M 254.5 321 L 251.5 325 L 248.5 327 L 250.5 324 L 254.5 321 Z " /><path fill="rgb(206,232,249)" stroke="rgb(206,232,249)" stroke-width="1" opacity="0.7176470588235294" d="M 65.5 323 L 69 330.5 L 67 329.5 L 65.5 323 Z " /><path fill="rgb(206,232,249)" stroke="rgb(206,232,249)" stroke-width="1" opacity="0.7176470588235294" d="M 213.5 324 L 210.5 328 L 213.5 324 Z " /><path fill="rgb(206,232,249)" stroke="rgb(206,232,249)" stroke-width="1" opacity="0.7176470588235294" d="M 427.5 326 L 428 327.5 L 424.5 334 L 425 332.5 L 427.5 326 Z " /><path fill="rgb(206,232,249)" stroke="rgb(206,232,249)" stroke-width="1" opacity="0.7176470588235294" d="M 246.5 327 L 244.5 330 L 246.5 327 Z " /><path fill="rgb(206,232,249)" stroke="rgb(206,232,249)" stroke-width="1" opacity="0.7176470588235294" d="M 374.5 327 L 374 328.5 L 371.5 333 L 372 331.5 L 374.5 327 Z " /><path fill="rgb(206,232,249)" stroke="rgb(206,232,249)" stroke-width="1" opacity="0.7176470588235294" d="M 208.5 328 L 206.5 331 L 205 330.5 L 208.5 328 Z " /><path fill="rgb(206,232,249)" stroke="rgb(206,232,249)" stroke-width="1" opacity="0.7176470588235294" d="M 122.5 330 L 129 338.5 L 126 336.5 L 122.5 330 Z " /><path fill="rgb(206,232,249)" stroke="rgb(206,232,249)" stroke-width="1" opacity="0.7176470588235294" d="M 242.5 330 L 241.5 332 L 239.5 333 L 240.5 331 L 242.5 330 Z " /><path fill="rgb(206,232,249)" stroke="rgb(206,232,249)" stroke-width="1" opacity="0.7176470588235294" d="M 200.5 334 L 199.5 336 L 197.5 337 L 198.5 335 L 200.5 334 Z " /><path fill="rgb(206,232,249)" stroke="rgb(206,232,249)" stroke-width="1" opacity="0.7176470588235294" d="M 235.5 334 L 234.5 336 L 235.5 334 Z " /><path fill="rgb(206,232,249)" stroke="rgb(206,232,249)" stroke-width="1" opacity="0.7176470588235294" d="M 370.5 334 L 369.5 336 L 370.5 334 Z " /><path fill="rgb(206,232,249)" stroke="rgb(206,232,249)" stroke-width="1" opacity="0.7176470588235294" d="M 70.5 335 L 73 339.5 L 72 339.5 L 70.5 335 Z " /><path fill="rgb(206,232,249)" stroke="rgb(206,232,249)" stroke-width="1" opacity="0.7176470588235294" d="M 232.5 336 L 231.5 338 L 230 337.5 L 232.5 336 Z " /><path fill="rgb(206,232,249)" stroke="rgb(206,232,249)" stroke-width="1" opacity="0.7176470588235294" d="M 423.5 336 L 423 337.5 L 420.5 342 L 421 340.5 L 423.5 336 Z " /><path fill="rgb(206,232,249)" stroke="rgb(206,232,249)" stroke-width="1" opacity="0.7176470588235294" d="M 195.5 337 L 193.5 340 L 183.5 345 L 184.5 343 L 195.5 337 Z " /><path fill="rgb(206,232,249)" stroke="rgb(206,232,249)" stroke-width="1" opacity="0.7176470588235294" d="M 368.5 337 L 367.5 339 L 368.5 337 Z " /><path fill="rgb(206,232,249)" stroke="rgb(206,232,249)" stroke-width="1" opacity="0.7176470588235294" d="M 228.5 338 L 227.5 340 L 222.5 342 L 222.5 341 L 228.5 338 Z " /><path fill="rgb(206,232,249)" stroke="rgb(206,232,249)" stroke-width="1" opacity="0.7176470588235294" d="M 129.5 340 L 130.5 342 L 129.5 340 Z " /><path fill="rgb(206,232,249)" stroke="rgb(206,232,249)" stroke-width="1" opacity="0.7176470588235294" d="M 366.5 340 L 365 342.5 L 360.5 348 L 363 344.5 L 366.5 340 Z " /><path fill="rgb(206,232,249)" stroke="rgb(206,232,249)" stroke-width="1" opacity="0.7176470588235294" d="M 73.5 341 L 76 344.5 L 74 343.5 L 73.5 341 Z " /><path fill="rgb(206,232,249)" stroke="rgb(206,232,249)" stroke-width="1" opacity="0.7176470588235294" d="M 220.5 342 L 219.5 344 L 218 343.5 L 220.5 342 Z " /><path fill="rgb(206,232,249)" stroke="rgb(206,232,249)" stroke-width="1" opacity="0.7176470588235294" d="M 131.5 343 Q 133.8 342.3 133 344.5 L 144 356.5 L 136 349.5 L 131.5 343 Z " /><path fill="rgb(206,232,249)" stroke="rgb(206,232,249)" stroke-width="1" opacity="0.7176470588235294" d="M 419.5 344 L 418.5 346 L 419.5 344 Z " /><path fill="rgb(206,232,249)" stroke="rgb(206,232,249)" stroke-width="1" opacity="0.7176470588235294" d="M 76.5 346 L 82 354.5 L 80 353.5 L 76.5 346 Z " /><path fill="rgb(206,232,249)" stroke="rgb(206,232,249)" stroke-width="1" opacity="0.7176470588235294" d="M 417.5 347 L 418 348.5 L 415 350.5 L 417.5 347 Z " /><path fill="rgb(206,232,249)" stroke="rgb(206,232,249)" stroke-width="1" opacity="0.7176470588235294" d="M 171.5 348 L 174 348.5 L 171.5 349 L 171.5 348 Z " /><path fill="rgb(206,232,249)" stroke="rgb(206,232,249)" stroke-width="1" opacity="0.7176470588235294" d="M 203.5 348 L 206 348.5 L 203.5 349 L 203.5 348 Z " /><path fill="rgb(206,232,249)" stroke="rgb(206,232,249)" stroke-width="1" opacity="0.7176470588235294" d="M 359.5 349 L 355 354.5 L 348.5 362 L 342.5 367 L 348.5 360 L 350 360 L 350 358 L 352 358 L 352 356 Q 354.7 357.1 354 354.5 L 359.5 349 Z " /><path fill="rgb(206,232,249)" stroke="rgb(206,232,249)" stroke-width="1" opacity="0.7176470588235294" d="M 164.5 350 L 167 350.5 L 164.5 351 L 164.5 350 Z " /><path fill="rgb(206,232,249)" stroke="rgb(206,232,249)" stroke-width="1" opacity="0.7176470588235294" d="M 189.5 351 L 192 351.5 L 189.5 352 L 189.5 351 Z " /><path fill="rgb(206,232,249)" stroke="rgb(206,232,249)" stroke-width="1" opacity="0.7176470588235294" d="M 164.5 352 L 170 352.5 L 164.5 353 L 164.5 352 Z " /><path fill="rgb(206,232,249)" stroke="rgb(206,232,249)" stroke-width="1" opacity="0.7176470588235294" d="M 182.5 352 L 188 352.5 L 182.5 353 L 182.5 352 Z " /><path fill="rgb(206,232,249)" stroke="rgb(206,232,249)" stroke-width="1" opacity="0.7176470588235294" d="M 414.5 352 L 415 353.5 L 403.5 369 L 405 366.5 L 414.5 352 Z " /><path fill="rgb(206,232,249)" stroke="rgb(206,232,249)" stroke-width="1" opacity="0.7176470588235294" d="M 82.5 356 L 83.5 358 L 82.5 356 Z " /><path fill="rgb(206,232,249)" stroke="rgb(206,232,249)" stroke-width="1" opacity="0.7176470588235294" d="M 145.5 358 Q 151.1 365.2 159 369 L 158.5 371 L 145.5 358 Z " /><path fill="rgb(206,232,249)" stroke="rgb(206,232,249)" stroke-width="1" opacity="0.7176470588235294" d="M 84.5 359 L 86.5 362 Q 84.3 362.8 85 360.5 L 84.5 359 Z " /><path fill="rgb(206,232,249)" stroke="rgb(206,232,249)" stroke-width="1" opacity="0.7176470588235294" d="M 87.5 363 L 95 372.5 L 91 369.5 L 87.5 363 Z " /><path fill="rgb(206,232,249)" stroke="rgb(206,232,249)" stroke-width="1" opacity="0.7176470588235294" d="M 339.5 368 L 336.5 372 L 332.5 374 L 332.5 373 L 339.5 368 Z " /><path fill="rgb(206,232,249)" stroke="rgb(206,232,249)" stroke-width="1" opacity="0.7176470588235294" d="M 402.5 370 L 401 372.5 L 387 390 L 385 390 L 385 392 L 383 392 L 383 394 L 381 394 Q 382.1 396.7 379.5 396 L 373 401.5 Q 389.8 387.8 402.5 370 Z " /><path fill="rgb(206,232,249)" stroke="rgb(206,232,249)" stroke-width="1" opacity="0.7176470588235294" d="M 160.5 371 L 166 375.5 L 163.5 374 L 160.5 371 Z " /><path fill="rgb(206,232,249)" stroke="rgb(206,232,249)" stroke-width="1" opacity="0.7176470588235294" d="M 97.5 376 L 125 402.5 L 122.5 401 L 107.5 387 L 106 387 L 106 385 L 104 385 L 104 383 Q 101.3 384.1 102 381.5 L 97.5 376 Z " /><path fill="rgb(206,232,249)" stroke="rgb(206,232,249)" stroke-width="1" opacity="0.7176470588235294" d="M 167.5 376 L 173 379.5 L 171.5 380 L 167.5 376 Z " /><path fill="rgb(206,232,249)" stroke="rgb(206,232,249)" stroke-width="1" opacity="0.7176470588235294" d="M 328.5 376 L 327.5 378 L 328.5 376 Z " /><path fill="rgb(206,232,249)" stroke="rgb(206,232,249)" stroke-width="1" opacity="0.7176470588235294" d="M 325.5 378 L 324.5 380 L 325.5 378 Z " /><path fill="rgb(206,232,249)" stroke="rgb(206,232,249)" stroke-width="1" opacity="0.7176470588235294" d="M 174.5 380 L 178 382.5 L 176.5 383 L 174.5 380 Z " /><path fill="rgb(206,232,249)" stroke="rgb(206,232,249)" stroke-width="1" opacity="0.7176470588235294" d="M 320.5 381 L 319.5 383 L 317.5 384 L 318.5 382 L 320.5 381 Z " /><path fill="rgb(206,232,249)" stroke="rgb(206,232,249)" stroke-width="1" opacity="0.7176470588235294" d="M 179.5 383 L 183 385.5 L 181.5 385 L 179.5 383 Z " /><path fill="rgb(206,232,249)" stroke="rgb(206,232,249)" stroke-width="1" opacity="0.7176470588235294" d="M 184.5 386 L 187 387.5 L 185.5 387 L 184.5 386 Z " /><path fill="rgb(206,232,249)" stroke="rgb(206,232,249)" stroke-width="1" opacity="0.7176470588235294" d="M 310.5 386 L 312 386.5 L 309.5 388 L 310.5 386 Z " /><path fill="rgb(206,232,249)" stroke="rgb(206,232,249)" stroke-width="1" opacity="0.7176470588235294" d="M 191.5 389 L 195 390.5 L 193.5 391 L 191.5 389 Z " /><path fill="rgb(206,232,249)" stroke="rgb(206,232,249)" stroke-width="1" opacity="0.7176470588235294" d="M 301.5 390 L 303 390.5 L 296.5 393 L 296.5 392 L 301.5 390 Z " /><path fill="rgb(206,232,249)" stroke="rgb(206,232,249)" stroke-width="1" opacity="0.7176470588235294" d="M 196.5 391 L 200 392.5 L 198.5 393 L 196.5 391 Z " /><path fill="rgb(206,232,249)" stroke="rgb(206,232,249)" stroke-width="1" opacity="0.7176470588235294" d="M 201.5 393 L 206 394.5 L 204.5 395 L 201.5 394 L 201.5 393 Z " /><path fill="rgb(206,232,249)" stroke="rgb(206,232,249)" stroke-width="1" opacity="0.7176470588235294" d="M 207.5 395 L 213 396.5 L 211.5 397 L 207.5 396 L 207.5 395 Z " /><path fill="rgb(206,232,249)" stroke="rgb(206,232,249)" stroke-width="1" opacity="0.7176470588235294" d="M 286.5 395 L 289 395.5 L 286.5 396 L 286.5 395 Z " /><path fill="rgb(206,232,249)" stroke="rgb(206,232,249)" stroke-width="1" opacity="0.7176470588235294" d="M 216.5 397 L 219 398.5 L 217.5 398 L 216.5 397 Z " /><path fill="rgb(206,232,249)" stroke="rgb(206,232,249)" stroke-width="1" opacity="0.7176470588235294" d="M 278.5 397 L 281 397.5 L 274.5 399 L 274.5 398 L 278.5 397 Z " /><path fill="rgb(206,232,249)" stroke="rgb(206,232,249)" stroke-width="1" opacity="0.7176470588235294" d="M 225.5 399 L 231 399.5 L 225.5 400 L 225.5 399 Z " /><path fill="rgb(206,232,249)" stroke="rgb(206,232,249)" stroke-width="1" opacity="0.7176470588235294" d="M 265.5 399 L 271 399.5 L 265.5 400 L 265.5 399 Z " /><path fill="rgb(206,232,249)" stroke="rgb(206,232,249)" stroke-width="1" opacity="0.7176470588235294" d="M 260.5 400 L 263 400.5 L 260.5 401 L 260.5 400 Z " /><path fill="rgb(206,232,249)" stroke="rgb(206,232,249)" stroke-width="1" opacity="0.7176470588235294" d="M 371.5 402 L 367.5 407 L 356.5 415 L 358.5 412 L 371.5 402 Z " /><path fill="rgb(206,232,249)" stroke="rgb(206,232,249)" stroke-width="1" opacity="0.7176470588235294" d="M 126.5 403 L 129.5 407 L 126 405 L 126.5 403 Z " /><path fill="rgb(206,232,249)" stroke="rgb(206,232,249)" stroke-width="1" opacity="0.7176470588235294" d="M 132.5 408 L 143 415.5 L 141.5 415 Q 134.4 412.7 132.5 408 Z " /><path fill="rgb(206,232,249)" stroke="rgb(206,232,249)" stroke-width="1" opacity="0.7176470588235294" d="M 144.5 416 L 145.5 418 L 144.5 416 Z " /><path fill="rgb(206,232,249)" stroke="rgb(206,232,249)" stroke-width="1" opacity="0.7176470588235294" d="M 352.5 416 L 351.5 418 L 352.5 416 Z " /><path fill="rgb(206,232,249)" stroke="rgb(206,232,249)" stroke-width="1" opacity="0.7176470588235294" d="M 147.5 418 L 150 419.5 L 148.5 420 L 147.5 418 Z " /><path fill="rgb(206,232,249)" stroke="rgb(206,232,249)" stroke-width="1" opacity="0.7176470588235294" d="M 349.5 418 L 348.5 420 L 341.5 424 L 342.5 422 L 349.5 418 Z " /><path fill="rgb(206,232,249)" stroke="rgb(206,232,249)" stroke-width="1" opacity="0.7176470588235294" d="M 154.5 422 L 155.5 424 L 154.5 422 Z " /><path fill="rgb(206,232,249)" stroke="rgb(206,232,249)" stroke-width="1" opacity="0.7176470588235294" d="M 157.5 424 L 160 425.5 L 158.5 425 L 157.5 424 Z " /><path fill="rgb(206,232,249)" stroke="rgb(206,232,249)" stroke-width="1" opacity="0.7176470588235294" d="M 339.5 424 L 338.5 426 L 337 425.5 L 339.5 424 Z " /><path fill="rgb(206,232,249)" stroke="rgb(206,232,249)" stroke-width="1" opacity="0.7176470588235294" d="M 161.5 426 L 164 427.5 L 162.5 427 L 161.5 426 Z " /><path fill="rgb(206,232,249)" stroke="rgb(206,232,249)" stroke-width="1" opacity="0.7176470588235294" d="M 165.5 428 L 168 429.5 L 166.5 429 L 165.5 428 Z " /><path fill="rgb(206,232,249)" stroke="rgb(206,232,249)" stroke-width="1" opacity="0.7176470588235294" d="M 177.5 433 L 180 434.5 L 178.5 435 L 177.5 433 Z " /><path fill="rgb(206,232,249)" stroke="rgb(206,232,249)" stroke-width="1" opacity="0.7176470588235294" d="M 319.5 433 L 321 433.5 L 317.5 435 L 317.5 434 L 319.5 433 Z " /><path fill="rgb(206,232,249)" stroke="rgb(206,232,249)" stroke-width="1" opacity="0.7176470588235294" d="M 182.5 435 L 186 436.5 L 184.5 437 L 182.5 435 Z " /><path fill="rgb(206,232,249)" stroke="rgb(206,232,249)" stroke-width="1" opacity="0.7176470588235294" d="M 313.5 435 L 316 435.5 L 312.5 437 L 313.5 435 Z " /><path fill="rgb(206,232,249)" stroke="rgb(206,232,249)" stroke-width="1" opacity="0.7176470588235294" d="M 188.5 437 L 192 438.5 L 189.5 439 L 188.5 437 Z " /><path fill="rgb(206,232,249)" stroke="rgb(206,232,249)" stroke-width="1" opacity="0.7176470588235294" d="M 308.5 437 L 310 437.5 L 306.5 439 L 306.5 438 L 308.5 437 Z " /><path fill="rgb(206,232,249)" stroke="rgb(206,232,249)" stroke-width="1" opacity="0.7176470588235294" d="M 193.5 439 L 198 440.5 L 196.5 441 L 193.5 440 L 193.5 439 Z " /><path fill="rgb(206,232,249)" stroke="rgb(206,232,249)" stroke-width="1" opacity="0.7176470588235294" d="M 201.5 441 L 207 442.5 L 203.5 443 L 201.5 441 Z " /><path fill="rgb(206,232,249)" stroke="rgb(206,232,249)" stroke-width="1" opacity="0.7176470588235294" d="M 290.5 442 L 294 442.5 L 290.5 443 L 290.5 442 Z " /><path fill="rgb(206,232,249)" stroke="rgb(206,232,249)" stroke-width="1" opacity="0.7176470588235294" d="M 208.5 443 L 212 443.5 L 208.5 444 L 208.5 443 Z " /><path fill="rgb(206,232,249)" stroke="rgb(206,232,249)" stroke-width="1" opacity="0.7176470588235294" d="M 286.5 443 L 289 443.5 L 286.5 444 L 286.5 443 Z " /><path fill="rgb(206,232,249)" stroke="rgb(206,232,249)" stroke-width="1" opacity="0.7176470588235294" d="M 280.5 444 L 284 444.5 L 280.5 445 L 280.5 444 Z " /><path fill="rgb(206,232,249)" stroke="rgb(206,232,249)" stroke-width="1" opacity="0.7176470588235294" d="M 219.5 445 L 223 445.5 L 219.5 446 L 219.5 445 Z " /><path fill="rgb(206,232,249)" stroke="rgb(206,232,249)" stroke-width="1" opacity="0.7176470588235294" d="M 275.5 445 L 279 445.5 L 275.5 446 L 275.5 445 Z " /><path fill="rgb(206,232,249)" stroke="rgb(206,232,249)" stroke-width="1" opacity="0.7176470588235294" d="M 228.5 446 L 234 446.5 L 228.5 447 L 228.5 446 Z " /><path fill="rgb(206,232,249)" stroke="rgb(206,232,249)" stroke-width="1" opacity="0.7176470588235294" d="M 264.5 446 L 269 446.5 L 264.5 447 L 264.5 446 Z " /><path fill="rgb(206,232,249)" stroke="rgb(206,232,249)" stroke-width="1" opacity="0.7176470588235294" d="M 235.5 447 L 263 447.5 L 235.5 448 L 235.5 447 Z " /><path fill="rgb(14,132,251)" stroke="rgb(14,132,251)" stroke-width="1" opacity="0.996078431372549" d="M 86.5 147 L 87 148.5 L 84.5 150 L 86.5 147 Z " /><path fill="rgb(14,132,251)" stroke="rgb(14,132,251)" stroke-width="1" opacity="0.996078431372549" d="M 78.5 155 L 79.5 157 L 78.5 155 Z " /><path fill="rgb(14,132,251)" stroke="rgb(14,132,251)" stroke-width="1" opacity="0.996078431372549" d="M 361.5 156 L 361 157.5 L 362 159.5 L 360.5 159 L 359 158.5 L 361.5 156 Z " /><path fill="rgb(14,132,251)" stroke="rgb(14,132,251)" stroke-width="1" opacity="0.996078431372549" d="M 78.5 158 L 82 158.5 L 78.5 159 L 78.5 158 Z " /><path fill="rgb(14,132,251)" stroke="rgb(14,132,251)" stroke-width="1" opacity="0.996078431372549" d="M 74.5 160 Q 76.8 159.3 76 161.5 L 73 163 L 74.5 160 Z " /><path fill="rgb(14,132,251)" stroke="rgb(14,132,251)" stroke-width="1" opacity="0.996078431372549" d="M 368.5 161 L 367.5 163 L 366 162.5 L 368.5 161 Z " /><path fill="rgb(14,132,251)" stroke="rgb(14,132,251)" stroke-width="1" opacity="0.996078431372549" d="M 78.5 162 L 76.5 165 L 75 164.5 L 78.5 162 Z " /><path fill="rgb(14,132,251)" stroke="rgb(14,132,251)" stroke-width="1" opacity="0.996078431372549" d="M 79.5 164 L 80 166.5 L 77 168 L 79.5 164 Z " /><path fill="rgb(14,132,251)" stroke="rgb(14,132,251)" stroke-width="1" opacity="0.996078431372549" d="M 71.5 165 L 73 165.5 L 71 166.5 L 74 167.5 L 71.5 169 L 70 166.5 L 71.5 165 Z " /><path fill="rgb(14,132,251)" stroke="rgb(14,132,251)" stroke-width="1" opacity="0.996078431372549" d="M 71.5 170 L 72.5 173 L 74 170 L 77 171.5 L 78.5 174 L 80 174 L 80 179.5 L 81.5 180 L 84 183.5 L 83 186.5 L 89.5 189 L 96 186 Q 94.9 183.3 97.5 184 L 101.5 189 L 103.5 190 L 107.5 185 L 109.5 184 L 110.5 186 L 107 187 Q 105.8 190 109.5 189 L 111 188.5 Q 112.1 191.8 109.5 191 L 106 196.5 L 108 199.5 L 104 204.5 L 105 206.5 L 103 209.5 L 104 211.5 L 101 212.5 L 103 213.5 L 102 215.5 L 102 217.5 L 99 234.5 L 99 236.5 L 99 263.5 L 100 264.5 L 100 274.5 L 102 277.5 L 102 281.5 L 107 301.5 L 113 315.5 L 121 330.5 L 130.5 344 Q 132.8 343.3 132 345.5 L 138.5 353 Q 140.8 352.3 140 354.5 L 149 362 L 149 364 L 151 364 Q 149.9 366.7 152.5 366 L 157.5 371 L 176.5 384 L 189.5 390 L 192.5 390 L 198.5 394 L 202.5 394 L 213.5 398 Q 219.6 397.4 222.5 400 L 229.5 400 L 235.5 402 L 259.5 402 L 266.5 400 L 274.5 400 L 279.5 398 L 281.5 398 L 284.5 398 L 293.5 394 L 297.5 394 L 314.5 386 L 316 386.5 Q 315.3 384.3 317.5 385 L 332.5 375 L 335 375 Q 333.9 372.3 336.5 373 L 342 369.5 L 343.5 367 L 346 365.5 Q 345.3 363.3 347.5 364 L 351 362 L 353.5 358 L 356 358 Q 354.9 355.3 357.5 356 Q 355.8 354 359.5 352 L 361 351.5 L 360.5 350 Q 362.8 350.8 362 348.5 L 365.5 344 L 366 345.5 L 365.5 347 Q 368.5 347.9 367 343.5 L 366.5 342 L 367.5 343 Q 370.3 337.6 373 339.5 L 374 335.5 L 372 335.5 L 374.5 332 L 375.5 334 L 376.5 331 Q 377.6 333.8 381 333 L 380 327.5 L 382 327.5 L 381 325.5 L 383 324.5 L 380 320.5 L 381.5 318 Q 386.1 319.9 385 327.5 L 384 334 Q 380.3 332.6 382 338.5 Q 379.8 339.8 382.5 341 L 384 341 L 384 336 L 386 336 L 387 347 Q 391.2 348.9 399.5 348 L 401.5 350 L 402 348 Q 408.9 348.6 411.5 344 L 412 345.5 Q 409 346.5 410 351.5 L 411.5 354 L 410 354.5 Q 412.5 356 409 357.5 L 405 362.5 L 405.5 364 L 403 365.5 L 399.5 372 L 398 372.5 L 399 373.5 L 392.5 380 L 390 380.5 L 391 382.5 L 385 387.5 L 374.5 399 L 371.5 401 L 369 402 L 367.5 405 L 335.5 426 Q 325.3 428.3 318.5 434 L 315.5 434 L 300.5 440 L 296.5 440 L 293.5 442 L 291.5 442 L 276.5 445 L 261.5 446 L 260.5 447 L 237.5 447 L 236.5 446 L 213.5 444 L 190.5 438 L 172.5 431 L 152.5 421 L 142.5 414 L 140 414 Q 141.1 411.3 138.5 412 L 128 405 Q 129.1 402.3 126.5 403 L 116 395 L 112.5 390 L 110 388.5 L 108.5 386 L 105 383.5 Q 91.1 368.9 80 351.5 L 64 319.5 L 64 316.5 L 58 301.5 L 53 276.5 L 53 265.5 L 51 255.5 L 51 240.5 L 53 231.5 L 54 215.5 L 56 211.5 L 55 209.5 L 57 205.5 Q 54.5 204 58 202.5 L 59 200.5 L 58 198.5 L 63 186.5 L 62 185.5 Q 65.1 183.8 63.5 182 Q 66.8 183.1 66 180.5 L 65 178.5 L 68 177.5 L 67 174.5 L 69 174.5 Q 67.5 170.1 70.5 171 L 71.5 170 Z M 71 172 L 70 175 L 71 175 L 71 172 Z M 102 191 L 101 195 L 102 196 L 104 195 L 105 193 L 102 191 Z M 100 206 L 100 210 L 102 210 L 102 208 Q 103 205 100 206 Z M 376 342 L 375 346 L 376 346 L 376 342 Z M 365 347 L 364 349 L 366 350 L 365 347 Z M 400 352 L 400 354 L 402 353 L 400 352 Z M 397 370 L 395 373 L 398 371 L 397 370 Z M 396 373 L 396 375 L 398 374 L 396 373 Z " /><path fill="rgb(14,132,251)" stroke="rgb(14,132,251)" stroke-width="1" opacity="0.996078431372549" d="M 113.5 176 L 112.5 178 L 113.5 176 Z " /><path fill="rgb(14,132,251)" stroke="rgb(14,132,251)" stroke-width="1" opacity="0.996078431372549" d="M 112.5 182 L 113 184.5 L 112 184.5 L 112.5 182 Z " /><path fill="rgb(14,132,251)" stroke="rgb(14,132,251)" stroke-width="1" opacity="0.996078431372549" d="M 365.5 188 L 363.5 191 L 365.5 188 Z " /><path fill="rgb(14,132,251)" stroke="rgb(14,132,251)" stroke-width="1" opacity="0.996078431372549" d="M 361.5 191 L 362 194 Q 359.3 195.1 360 192.5 L 361.5 191 Z " /><path fill="rgb(14,132,251)" stroke="rgb(14,132,251)" stroke-width="1" opacity="0.996078431372549" d="M 358.5 194 Q 361.2 195.3 359 196.5 Q 358.2 199.1 361.5 198 L 366 195 L 364.5 199 L 362 200.5 L 361 204 Q 364.8 204.8 366 201.5 L 367.5 199 L 370.5 204 L 372.5 205 L 385 203 L 385.5 200 Q 386.8 202.3 388 199.5 Q 387.3 197.3 389.5 198 L 390.5 200 L 389 200.5 L 392 201.5 L 389.5 205 L 389 203.5 Q 391.3 202.3 388.5 201 L 387 201.5 L 388 204 L 385 205.5 L 386.5 206 Q 387.8 203.8 389 206.5 L 386.5 207 L 384 207.5 L 384.5 209 L 382.5 208 L 382.5 210 L 379.5 209 L 378 212.5 L 380 213.5 L 377 215.5 Q 377.8 217.8 375.5 217 Q 370.9 224.5 363 227 L 357.5 234 L 354.5 236 L 350 239.5 L 348.5 242 L 345.5 244 L 326.5 261 L 316 268 L 314.5 271 L 290 290 Q 291.1 292.7 288.5 292 Q 283.5 298.9 276 302 Q 277.1 304.7 274.5 304 L 263 313 Q 264.1 315.7 261.5 315 L 239.5 332 L 213.5 345 L 186.5 352 L 168.5 352 L 168.5 351 L 182.5 346 L 203.5 334 L 248 297 L 248 295 L 250 295 Q 248.9 292.3 251.5 293 L 276.5 269 L 278 269 Q 276.9 266.3 279.5 267 L 288.5 258 L 290 258 L 293.5 253 L 320.5 228 L 329 222.5 L 328.5 221 L 335 217 Q 333.5 213.3 336.5 214 L 341 212.5 L 339 211.5 L 342 209.5 L 343.5 207 L 347 204.5 Q 346.2 201.9 349.5 203 L 355 199 L 355.5 201 L 357 198.5 L 355 198 L 355.5 196 L 357.5 196 L 359 195.5 L 358.5 194 Z " /><path fill="rgb(14,132,251)" stroke="rgb(14,132,251)" stroke-width="1" opacity="0.996078431372549" d="M 398.5 196 L 399 198 L 397 197.5 L 398.5 196 Z " /><path fill="rgb(14,132,251)" stroke="rgb(14,132,251)" stroke-width="1" opacity="0.996078431372549" d="M 410.5 206 Q 412.8 205.3 412 207.5 L 410.5 206 Z " /><path fill="rgb(14,132,251)" stroke="rgb(14,132,251)" stroke-width="1" opacity="0.996078431372549" d="M 414.5 208 L 413.5 210 L 414.5 208 Z " /><path fill="rgb(14,132,251)" stroke="rgb(14,132,251)" stroke-width="1" opacity="0.996078431372549" d="M 419.5 208 L 421 211.5 L 416.5 217 Q 413.3 216.3 414 211.5 L 415 211.5 Q 414.3 213.8 416.5 213 L 416 211.5 L 416.5 210 Q 417.8 212.3 419 209.5 L 419.5 208 Z " /><path fill="rgb(14,132,251)" stroke="rgb(14,132,251)" stroke-width="1" opacity="0.996078431372549" d="M 418.5 217 L 419 219.5 L 418.5 221 L 417 218.5 L 418.5 217 Z " /><path fill="rgb(14,132,251)" stroke="rgb(14,132,251)" stroke-width="1" opacity="0.996078431372549" d="M 343 262 Q 346 261 345 264 Q 342.3 262.9 343 265.5 L 342 265.5 L 343 262 Z " /><path fill="rgb(14,132,251)" stroke="rgb(14,132,251)" stroke-width="1" opacity="0.996078431372549" d="M 338.5 265 L 337.5 267 L 336 266.5 L 338.5 265 Z " /><path fill="rgb(14,132,251)" stroke="rgb(14,132,251)" stroke-width="1" opacity="0.996078431372549" d="M 343.5 267 L 346 268.5 L 334 275 L 335 280.5 Q 332.3 281.3 333 285.5 L 334.5 285 L 337 283.5 L 336 280 Q 339.8 278.5 339 281.5 L 340 284 L 344 285 L 344 288 L 352.5 288 L 353 289.5 L 355 293 L 359.5 292 Q 360.8 294.3 365.5 293 L 367 294.5 L 367.5 296 L 369.5 296 L 372.5 298 L 379 299 L 380 304.5 L 378.5 304 L 370.5 305 L 369.5 304 L 357.5 304 L 354.5 305 L 352.5 304 Q 351.3 306.3 346.5 305 Q 345.3 302.7 340.5 304 L 339.5 305 L 329.5 305 L 325.5 304 L 324.5 305 L 296.5 305 L 294.5 305 L 290 304.5 L 297 300.5 L 296.5 299 Q 298.8 299.8 298 297.5 L 301 296.5 L 301 295 L 303 295 Q 301.9 292.3 304.5 293 Q 306.8 288.7 309 290.5 L 311.5 286 Q 312.8 288.3 314 285.5 L 316.5 282 L 320 282.5 L 322.5 278 Q 324.8 278.8 324 276.5 L 325.5 277 L 327.5 276 L 328.5 279 Q 331.1 279.8 330 276.5 L 334 275 Q 335 270.8 332 269.5 L 333.5 268 L 337.5 268 L 339.5 270 L 343.5 267 Z " /><path fill="rgb(14,132,251)" stroke="rgb(14,132,251)" stroke-width="1" opacity="0.996078431372549" d="M 143.5 268 L 194.5 268 L 196 269.5 Q 196.5 274 195.5 274 L 143.5 274 Q 141.3 273.3 142 269.5 L 143.5 268 Z " /><path fill="rgb(14,132,251)" stroke="rgb(14,132,251)" stroke-width="1" opacity="0.996078431372549" d="M 143.5 288 L 176.5 288 L 179 290.5 Q 179.5 294.5 176.5 295 L 144.5 295 L 142 294 Q 140.8 289.4 143.5 288 Z " /><path fill="rgb(14,132,251)" stroke="rgb(14,132,251)" stroke-width="1" opacity="0.996078431372549" d="M 386.5 305 L 387 307.5 L 386 307.5 L 386.5 305 Z " /><path fill="rgb(14,132,251)" stroke="rgb(14,132,251)" stroke-width="1" opacity="0.996078431372549" d="M 385.5 309 L 387 311.5 L 385 312 L 385.5 309 Z " /><path fill="rgb(14,132,251)" stroke="rgb(14,132,251)" stroke-width="1" opacity="0.996078431372549" d="M 377.5 324 L 380 324.5 L 378.5 327 L 377.5 324 Z " /><path fill="rgb(14,132,251)" stroke="rgb(14,132,251)" stroke-width="1" opacity="0.996078431372549" d="M 419 330 Q 421.7 328.9 421 331.5 L 419 332.5 L 419 330 Z " /><path fill="rgb(14,132,251)" stroke="rgb(14,132,251)" stroke-width="1" opacity="0.996078431372549" d="M 417.5 338 Q 420.1 337.2 419 340.5 L 416.5 345 L 415 344.5 L 414.5 346 Q 411.8 344.8 414 343.5 Q 413.3 341.3 415.5 342 L 417 342.5 L 416 340.5 L 418 340.5 L 417.5 338 Z " /><path fill="rgb(14,132,251)" stroke="rgb(14,132,251)" stroke-width="1" opacity="0.996078431372549" d="M 400 344 L 403 344.5 L 400.5 346 L 400 344 Z " /><path fill="rgb(14,132,251)" stroke="rgb(14,132,251)" stroke-width="1" opacity="0.996078431372549" d="M 411.5 348 L 412 350.5 L 411 350.5 L 411.5 348 Z " /></svg>